<svg width="100" height="26" viewBox="0 0 100 26" fill="none" xmlns="http://www.w3.org/2000/svg">
<path d="M90.5756 3.15445C90.3679 2.82461 89.6787 1.92962 88.4262 2.17131L85.4933 2.73851L82.108 0.772661C82.108 0.772661 81.133 0.164455 80.042 0.374935L78.1474 0.740767L80.2557 3.7515L77.3706 4.30936L76.0883 3.56448C76.0883 3.56448 75.6694 3.30343 75.2011 3.39364L74.3871 3.55082L75.3515 4.88339L75.715 5.38591L75.7152 5.38568C75.7217 5.39411 75.7295 5.40207 75.7362 5.4105C75.9927 5.73374 76.4328 6.01416 77.1807 5.86997L79.4635 5.42941L80.2647 5.27451L90.5098 3.29773C90.5768 3.28498 90.6114 3.21163 90.5754 3.15422" fill="#44B94A"/>
<path d="M88.8143 20.6443C88.8143 20.6443 87.9867 21.8108 86.0972 21.8108C85.5065 21.8108 83.5765 21.6035 83.5765 18.9572V11.9738H87.1478V18.3215C87.1478 18.947 87.4521 19.2634 88.054 19.2634C88.3712 19.2634 88.9079 19.0541 88.9079 18.2698V11.9738H92.5418V21.614H89.2524L88.904 20.6443H88.8143Z" fill="#127C3C"/>
<path d="M69.135 21.8242C68.2032 21.8242 67.3305 21.5115 66.7968 20.9859C66.2174 20.4126 65.9334 19.4552 65.9334 18.065V14.749H64.6194V12.7319L65.9664 12.1809L65.9754 12.1788L65.9861 12.1738L65.9932 12.167L65.9953 12.1565L67.818 9.41183H69.5144V12.1738H71.6407V14.749H69.5144V18.1672C69.5144 18.755 69.7986 19.042 70.3769 19.042H71.4972V21.3682C71.0153 21.5807 70.2228 21.8242 69.135 21.8242Z" fill="#127C3C"/>
<path d="M77.4095 14.4624C76.3855 14.4624 76.2685 15.7793 76.2685 16.7695C76.2685 17.7632 76.3855 19.0821 77.4095 19.0821C78.4341 19.0821 78.5543 17.7632 78.5543 16.7695C78.5543 15.7793 78.4341 14.4624 77.4095 14.4624ZM77.4095 21.8108C74.2007 21.8108 72.4995 20.0875 72.4995 16.8283C72.4995 13.4497 74.1526 11.7335 77.4095 11.7335C80.6681 11.7335 82.3178 13.4497 82.3178 16.8283C82.3178 20.0875 80.6217 21.8108 77.4095 21.8108Z" fill="#127C3C"/>
<path d="M97.3645 12.2665C97.1644 12.2902 96.7737 12.3965 96.3458 12.6312L95.9045 11.9667H94.2081V21.8173H94.5533V21.8235H98.1246V15.4758C98.1246 14.8503 98.4289 14.5339 99.0305 14.5339C99.2223 14.5339 99.7306 14.6111 99.9154 14.8448C99.9434 14.8804 100 14.8631 100 14.818V12.694C99.8487 12.5045 98.933 12.0806 97.3645 12.2665Z" fill="#127C3C"/>
<path d="M28.1257 18.9377C27.0744 18.9377 26.0902 18.5847 25.4881 17.9922C24.8342 17.3452 24.5142 16.2651 24.5142 14.6972V10.9561H23.0318V8.68095L24.5512 8.05908L24.5613 8.0568L24.5736 8.05134L24.5814 8.04359L24.5838 8.03175L26.6401 4.9356H28.5536V8.05134H30.9523V10.9561H28.5534V14.8124C28.5534 15.4753 28.8743 15.7992 29.5265 15.7992H30.7901V18.4232C30.2465 18.663 29.3528 18.9377 28.1257 18.9377Z" fill="#127C3C"/>
<path d="M37.46 10.6327C36.3047 10.6327 36.173 12.1181 36.173 13.2352C36.173 14.3561 36.3047 15.8439 37.46 15.8439C38.6161 15.8439 38.7515 14.3564 38.7515 13.2352C38.7515 12.1181 38.6159 10.6327 37.46 10.6327ZM37.46 18.9222C33.8402 18.9222 31.9211 16.9783 31.9211 13.3015C31.9211 9.49006 33.7861 7.55428 37.46 7.55428C41.1359 7.55428 42.9968 9.49006 42.9968 13.3015C42.9968 16.9783 41.0837 18.9222 37.46 18.9222Z" fill="#127C3C"/>
<path d="M4.92336 13.8083C4.34944 13.8083 3.95759 14.3117 3.95759 14.9179C3.95759 15.4753 4.40305 15.9505 4.93584 15.9505C5.53517 15.9505 5.91224 15.5684 5.91224 14.9527V13.8903C5.91224 13.8903 5.57953 13.8083 4.92336 13.8083ZM5.91016 11.2213C5.91016 10.5233 5.58831 10.2971 4.86814 10.2971H1.11087L0.851637 7.98274C2.09166 7.69276 4.11239 7.3882 5.73364 7.3882C9.4752 7.3882 9.99136 9.10029 9.99136 10.952V18.7001H6.31103L5.91363 17.6083H5.82144C5.82144 17.6083 5.26161 18.922 2.94584 18.922C0.77308 18.922 0 16.9648 0 15.2978C0 12.9097 1.47454 11.5525 4.38156 11.5525C5.22719 11.5525 5.91016 11.6659 5.91016 11.6659V11.2213Z" fill="#127C3C"/>
<path d="M17.6344 17.6065C17.6344 17.6065 16.7005 18.922 14.5693 18.922C13.9027 18.922 11.7256 18.6883 11.7256 15.7033V7.82534H15.7541V14.986C15.7541 15.6917 16.0974 16.0484 16.7763 16.0484C17.1344 16.0484 17.7397 15.8124 17.7397 14.9277V7.82534H21.8389V18.7001H18.1283L17.7351 17.6063L17.6344 17.6065Z" fill="#127C3C"/>
<path d="M47.8381 19.3395L47.8827 23.6869C46.1834 23.8917 45.0887 24.991 44.89 25.6596C46.0986 26.0787 49.9563 26.0576 50.7474 25.8801L51.9685 20.9127C50.3845 20.8211 48.9511 20.2402 47.8381 19.3395Z" fill="#127C3C"/>
<path d="M56.5137 23.6867L56.555 19.6766C55.4035 20.458 53.9765 20.9263 52.4295 20.9283L53.6448 25.8799C54.4347 26.0575 58.2906 26.079 59.5027 25.6596C59.3061 24.991 58.2098 23.8915 56.5137 23.6869" fill="#127C3C"/>
<path d="M51.4001 15.6686C50.677 15.1593 50.5753 14.1734 50.999 13.4169C51.0656 13.2957 51.1552 13.1631 51.2624 13.0246C52.2176 13.6426 53.3053 14.2007 54.5213 14.6549C54.0676 15.8321 52.5062 16.4656 51.3999 15.6686M51.8456 4.26373C52.7878 4.26373 53.2781 5.14483 53.2781 5.7159C53.2781 6.69085 52.5792 7.5289 51.6122 8.31456C50.8734 7.46079 50.4681 6.58744 50.4681 5.81568C50.4681 4.96533 51.0748 4.26373 51.8456 4.26373ZM54.3531 10.4902C56.2177 9.14713 57.3591 7.60703 57.3669 5.95007C57.3794 4.09357 56.2484 3.1209 55.6267 2.71315C56.0971 2.38194 56.9325 2.10494 57.6386 2.07601L57.1372 0.356184C54.0445 -0.226509 46.3215 0.323383 46.3215 6.06101C46.3215 7.41956 47.053 9.08267 48.4545 10.6483C47.1967 11.7558 46.4558 12.9194 46.4558 14.3369C46.4558 17.8773 49.5929 19.8563 52.4033 19.8563C55.5904 19.8563 57.8558 17.4759 58.3403 15.6531C59.7404 15.875 61.2561 15.9725 62.8757 15.9044L63.5317 12.5645C59.8765 12.7321 56.6765 11.8121 54.3531 10.4902Z" fill="#127C3C"/>
<path d="M31.7709 24.8769C26.2656 25.2498 19.946 23.9104 16.1961 19.6513C16.033 19.7017 15.8675 19.7439 15.7001 19.7778C16.4029 20.6124 17.2534 21.4033 18.2607 22.1313C24.1998 26.2022 32.0588 26.9181 38.9213 24.8609C41.6983 23.9933 44.3294 22.8081 46.8776 21.4577L46.8599 19.7224C42.1611 22.3853 37.2493 24.5489 31.7709 24.8769Z" fill="#44B94A"/>
<path d="M21.6084 3.13515C28.7837 -0.162597 38.274 0.615086 44.1737 6.07686L44.2846 5.97708C42.7881 4.16044 40.7817 2.75724 38.5995 1.78685C33.0976 -0.634128 26.4848 -0.60702 21.0294 1.94106C18.4324 3.13925 16.4105 4.86591 15.0596 6.85681H16.4713C17.8814 5.27525 19.7089 4.00668 21.6084 3.13515Z" fill="#44B94A"/>
<path d="M75.2351 5.40667C71.9117 6.00804 68.6152 6.92035 65.5478 8.36068C63.6352 9.3026 61.79 10.3652 59.9715 11.4641C60.714 11.563 61.4624 11.6136 62.2117 11.6156C62.2551 11.6156 62.2993 11.6129 62.3429 11.6126C63.5696 10.837 64.8089 10.0842 66.081 9.38483C69.0638 7.81079 72.2892 6.73151 75.5641 5.86089L75.3515 5.56772L75.2351 5.40667Z" fill="#44B94A"/>
</svg>
