<svg width="25" height="24" viewBox="0 0 25 24" fill="none" xmlns="http://www.w3.org/2000/svg">
<path d="M22.1684 6.95054C21.5283 4.78047 19.7182 2.97042 17.5481 2.3304C15.8981 1.85039 14.758 1.89039 13.968 2.48041C13.0179 3.19043 12.9079 4.47046 12.9079 5.38049V7.87056C12.9079 10.3306 14.028 11.5807 16.2281 11.5807H19.0982C19.9983 11.5807 21.2883 11.4707 21.9984 10.5206C22.6084 9.74062 22.6584 8.60058 22.1684 6.95054Z" fill="white"/>
<path d="M19.4082 13.3607C19.1482 13.0607 18.7682 12.8907 18.3782 12.8907H14.798C13.0379 12.8907 11.6079 11.4607 11.6079 9.70062V6.12051C11.6079 5.7305 11.4379 5.35049 11.1379 5.09048C10.8478 4.83048 10.4478 4.71047 10.0678 4.76047C7.7177 5.06048 5.5576 6.35052 4.14753 8.29058C2.72747 10.2406 2.20744 12.6207 2.65746 15.0008C3.30749 18.4409 6.05762 21.191 9.50778 21.841C10.0578 21.951 10.6078 22.001 11.1579 22.001C12.9679 22.001 14.718 21.441 16.2081 20.3509C18.1482 18.9409 19.4382 16.7808 19.7382 14.4308C19.7883 14.0407 19.6682 13.6507 19.4082 13.3607Z" fill="white"/>
</svg>
