<svg width="14" height="19" viewBox="0 0 14 19" fill="none" xmlns="http://www.w3.org/2000/svg">
<path fill-rule="evenodd" clip-rule="evenodd" d="M1.41498 17.5625C1.77612 17.9003 2.39852 17.9261 2.798 17.6178L12.5194 10.0994C12.5197 10.0992 12.5192 10.0996 12.5194 10.0994C12.7215 9.94366 12.8335 9.72504 12.8335 9.50008C12.8335 9.27511 12.7222 9.05703 12.5201 8.90126C12.5203 8.90144 12.5199 8.90109 12.5201 8.90126L2.79843 1.38269C2.6137 1.24027 2.37717 1.16671 2.13926 1.16671C1.87122 1.16671 1.60518 1.25947 1.41466 1.438C1.06125 1.76888 1.08841 2.27707 1.47956 2.57973L10.4277 9.50008L1.47966 16.4204C1.0884 16.7231 1.06127 17.2316 1.41498 17.5625Z" fill="#95C3DD"/>
<path d="M12.5194 10.0994C12.5197 10.0992 12.5192 10.0996 12.5194 10.0994ZM12.5194 10.0994C12.7215 9.94366 12.8335 9.72504 12.8335 9.50008C12.8335 9.27511 12.7222 9.05703 12.5201 8.90126M12.5194 10.0994L2.798 17.6178C2.39852 17.9261 1.77612 17.9003 1.41498 17.5625C1.06127 17.2316 1.0884 16.7231 1.47966 16.4204L10.4277 9.50008L1.47956 2.57973C1.08841 2.27707 1.06125 1.76888 1.41466 1.438C1.60518 1.25947 1.87122 1.16671 2.13926 1.16671C2.37717 1.16671 2.6137 1.24027 2.79843 1.38269L12.5201 8.90126M12.5201 8.90126C12.5199 8.90109 12.5203 8.90144 12.5201 8.90126Z" stroke="#95C3DD" stroke-width="0.5"/>
</svg>
