<svg viewBox="0 0 1024.005 1045.334" xmlns="http://www.w3.org/2000/svg"><path d="M642.005 213.667h.504c58.378 0 111.268 23.495 149.73 61.547l-.02-.02c39.354 38.946 63.772 92.917 63.934 152.59v255.14c-.127 118.467-96.128 214.47-214.582 214.596h-66.795l-148.035 145.497L281.2 897.52h-66.605C96.13 897.393.127 801.392 0 682.938V427.816c0-118.272 95.878-214.15 214.15-214.15h427.854zm-.445 594.81c69.31-.076 125.475-56.242 125.55-125.544V427.816c-.13-34.837-14.39-66.318-37.342-89.033l-.01-.01c-22.463-22.3-53.407-36.082-87.57-36.082-.753 0-1.505.008-2.255.02h.113H214.15c-69.093 0-125.105 56.01-125.105 125.105v255.11c.076 69.31 56.242 125.475 125.544 125.55h103.475L427.41 917.644l111.082-109.167zm167.847-81.03v-89.042h.002c69.34 0 125.55-56.21 125.55-125.55 0-.236 0-.47-.002-.705v.036V258.19c0-69.34-56.21-125.552-125.55-125.552H384.67c-69.34 0-125.55 56.21-125.55 125.55h-89.044c0-118.516 96.077-214.594 214.595-214.594H809.41c118.517 0 214.595 96.077 214.595 214.595v253.773c.002.304.002.664.002 1.024 0 118.517-96.077 214.595-214.595 214.595h-.003zm-509.774-127.33h-85.037v-89.044h85.037zm170.073 0H384.67v-89.044h85.036zm169.628 0h-85.037v-89.044h85.037z"/></svg>