<svg width="26" height="26" viewBox="0 0 26 26" fill="none" xmlns="http://www.w3.org/2000/svg">
  <path d="M26 13C26 20.1797 20.1797 26 13 26C5.8203 26 0 20.1797 0 13C0 5.8203 5.8203 0 13 0C20.1797 0 26 5.8203 26 13Z" fill="#0EC0CB" />
  <path d="M9.99366 16.1942L6.03372 12.3448L4.33333 13.9977L9.99366 19.5L21.6667 8.15291L19.9663 6.5L9.99366 16.1942Z" fill="white" />
  <path fill-rule="evenodd" clip-rule="evenodd" d="M19.9663 5.74459L22.4438 8.15291L9.99367 20.2554L3.55622 13.9977L6.03372 11.5894L9.99367 15.4388L19.9663 5.74459ZM19.9663 7.25541L9.99367 16.9496L6.03372 13.1002L5.11045 13.9977L9.99367 18.7446L20.8896 8.15291L19.9663 7.25541Z" fill="white" />
</svg>