<svg width="30" height="30" viewBox="0 0 30 30" fill="none" xmlns="http://www.w3.org/2000/svg">
<path d="M30 15C30 23.2843 23.2843 30 15 30C6.71573 30 0 23.2843 0 15C0 6.71573 6.71573 0 15 0C23.2843 0 30 6.71573 30 15Z" fill="white"/>
<path d="M11.5312 18.6856L6.96198 14.244L5 16.1512L11.5312 22.5L25 9.4072L23.038 7.5L11.5312 18.6856Z" fill="#2F312A"/>
<path fill-rule="evenodd" clip-rule="evenodd" d="M23.038 6.62837L25.8967 9.4072L11.5312 23.3716L4.10334 16.1512L6.96198 13.3724L11.5312 17.814L23.038 6.62837ZM23.038 8.37163L11.5312 19.5572L6.96198 15.1156L5.89667 16.1512L11.5312 21.6284L24.1033 9.4072L23.038 8.37163Z" fill="#2F312A"/>
</svg>
