<svg width="20" height="20" viewBox="0 0 20 20" fill="none" xmlns="http://www.w3.org/2000/svg">
<path fill-rule="evenodd" clip-rule="evenodd" d="M1.13132 5.2127C0.759704 5.52225 0.731343 6.05573 1.07044 6.39815L9.34066 14.7308C9.34086 14.731 9.34046 14.7306 9.34066 14.7308C9.512 14.904 9.75248 15 9.99994 15C10.2474 15 10.4873 14.9046 10.6586 14.7314C10.6584 14.7316 10.6588 14.7312 10.6586 14.7314L18.9291 6.39851C19.0857 6.24017 19.1666 6.03743 19.1666 5.83351C19.1666 5.60376 19.0646 5.37572 18.8682 5.21242C18.5043 4.9095 17.9453 4.93278 17.6123 5.26806L9.99994 12.9379L2.38762 5.26814C2.05461 4.93277 1.49528 4.90952 1.13132 5.2127Z" fill="white"/>
<path d="M9.34066 14.7308C9.34086 14.731 9.34046 14.7306 9.34066 14.7308ZM9.34066 14.7308C9.512 14.904 9.75248 15 9.99994 15C10.2474 15 10.4873 14.9046 10.6586 14.7314M9.34066 14.7308L1.07044 6.39815C0.731343 6.05573 0.759704 5.52225 1.13132 5.2127C1.49528 4.90953 2.05461 4.93277 2.38762 5.26814L9.99994 12.9379L17.6123 5.26806C17.9453 4.93278 18.5043 4.9095 18.8682 5.21242C19.0646 5.37572 19.1666 5.60376 19.1666 5.83351C19.1666 6.03743 19.0857 6.24017 18.9291 6.39851L10.6586 14.7314M10.6586 14.7314C10.6588 14.7312 10.6584 14.7316 10.6586 14.7314Z" stroke="white" stroke-width="0.5"/>
</svg>
