<svg width="10" height="14" viewBox="0 0 10 14" fill="none" xmlns="http://www.w3.org/2000/svg">
<path fill-rule="evenodd" clip-rule="evenodd" d="M0.532177 13.4499C0.821092 13.7202 1.31901 13.7408 1.63859 13.4942L9.41574 7.47946C9.41592 7.47932 9.41555 7.47961 9.41574 7.47946C9.5774 7.35485 9.66699 7.17996 9.66699 6.99999C9.66699 6.82002 9.57795 6.64555 9.41628 6.52094C9.41646 6.52108 9.4161 6.5208 9.41628 6.52094L1.63894 0.506078C1.49115 0.392143 1.30193 0.333292 1.1116 0.333292C0.897167 0.333292 0.684335 0.407502 0.531919 0.55033C0.249193 0.815034 0.270921 1.22158 0.583845 1.46371L7.74238 6.99999L0.583919 12.5362C0.27091 12.7784 0.249214 13.1852 0.532177 13.4499Z" fill="#6EBC30"/>
<path d="M9.41574 7.47946C9.41592 7.47932 9.41555 7.47961 9.41574 7.47946ZM9.41574 7.47946C9.5774 7.35485 9.66699 7.17996 9.66699 6.99999C9.66699 6.82002 9.57795 6.64555 9.41628 6.52094M9.41574 7.47946L1.63859 13.4942C1.31901 13.7408 0.821092 13.7202 0.532177 13.4499C0.249214 13.1852 0.27091 12.7784 0.583919 12.5362L7.74238 6.99999L0.583845 1.46371C0.270921 1.22158 0.249193 0.815034 0.531918 0.55033C0.684335 0.407503 0.897168 0.333292 1.1116 0.333292C1.30193 0.333292 1.49115 0.392142 1.63894 0.506078L9.41628 6.52094M9.41628 6.52094C9.4161 6.5208 9.41646 6.52108 9.41628 6.52094Z" stroke="#6EBC30" stroke-width="0.5"/>
</svg>
