<svg width="24" height="24" viewBox="0 0 24 24" fill="none" xmlns="http://www.w3.org/2000/svg">
<path fill-rule="evenodd" clip-rule="evenodd" d="M14.7873 3.29259C14.4777 2.92773 13.9443 2.89988 13.6019 3.23282L5.2692 11.3527C5.26901 11.3529 5.2694 11.3525 5.2692 11.3527C5.09599 11.5209 5 11.757 5 12C5 12.2429 5.0954 12.4785 5.26862 12.6467C5.26843 12.6465 5.26882 12.6469 5.26862 12.6467L13.6015 20.7667C13.7598 20.9206 13.9626 21 14.1665 21C14.3962 21 14.6243 20.8998 14.7876 20.707C15.0905 20.3496 15.0672 19.8008 14.7319 19.4739L7.06208 12L14.7319 4.52605C15.0672 4.19909 15.0905 3.64993 14.7873 3.29259Z" fill="#132D5C"/>
<path d="M5.2692 11.3527C5.26901 11.3529 5.2694 11.3525 5.2692 11.3527ZM5.2692 11.3527C5.09599 11.5209 5 11.757 5 12C5 12.2429 5.0954 12.4785 5.26862 12.6467M5.2692 11.3527L13.6019 3.23282C13.9443 2.89988 14.4777 2.92773 14.7873 3.29259C15.0905 3.64993 15.0672 4.19909 14.7319 4.52605L7.06208 12L14.7319 19.4739C15.0672 19.8008 15.0905 20.3496 14.7876 20.707C14.6243 20.8998 14.3962 21 14.1665 21C13.9626 21 13.7598 20.9206 13.6015 20.7667L5.26862 12.6467M5.26862 12.6467C5.26882 12.6469 5.26843 12.6465 5.26862 12.6467Z" stroke="#132D5C" stroke-width="0.5"/>
</svg>
