<svg width="18" height="18" viewBox="0 0 18 18" fill="none" xmlns="http://www.w3.org/2000/svg">
<path d="M0.473796 18C0.352535 18 0.231273 17.9536 0.138906 17.8612C-0.046302 17.676 -0.046302 17.3766 0.138906 17.1914L17.1913 0.139075C17.3765 -0.0461325 17.6759 -0.0461325 17.8611 0.139075C18.0463 0.324283 18.0463 0.623647 17.8611 0.808854L0.808687 17.8612C0.716319 17.9536 0.595058 18 0.473796 18Z" fill="white"/>
<path d="M17.5262 17.9998C17.4049 17.9998 17.2837 17.9534 17.1913 17.861L0.138906 0.808685C-0.046302 0.623477 -0.046302 0.324113 0.138906 0.138906C0.324114 -0.0463019 0.623479 -0.0463019 0.808687 0.138906L17.8611 17.1913C18.0463 17.3765 18.0463 17.6758 17.8611 17.861C17.7687 17.9534 17.6475 17.9998 17.5262 17.9998Z" fill="white"/>
</svg>
