<svg width="24" height="24" viewBox="0 0 24 24" fill="none" xmlns="http://www.w3.org/2000/svg">
<path fill-rule="evenodd" clip-rule="evenodd" d="M1 2.54054C1 2.24201 1.23452 2 1.52381 2H22.4762C22.7655 2 23 2.24201 23 2.54054V18.7568C23 19.0553 22.7655 19.2973 22.4762 19.2973H14.836L12.3704 21.8417C12.1658 22.0528 11.8342 22.0528 11.6296 21.8417L9.16398 19.2973H1.52381C1.23452 19.2973 1 19.0553 1 18.7568V2.54054ZM2.04762 3.08108V18.2162H9.38095C9.51988 18.2162 9.65311 18.2732 9.75134 18.3745L12 20.695L14.2487 18.3745C14.3469 18.2732 14.4801 18.2162 14.619 18.2162H21.9524V3.08108H2.04762Z" fill="#6592E2"/>
<path fill-rule="evenodd" clip-rule="evenodd" d="M12 10.1081C12.2893 10.1081 12.5238 10.3501 12.5238 10.6486V15.5135C12.5238 15.812 12.2893 16.0541 12 16.0541C11.7107 16.0541 11.4762 15.812 11.4762 15.5135V10.6486C11.4762 10.3501 11.7107 10.1081 12 10.1081Z" fill="#6592E2"/>
<path fill-rule="evenodd" clip-rule="evenodd" d="M12 6.32432C12.2893 6.32432 12.5238 6.56633 12.5238 6.86486V7.40541C12.5238 7.70394 12.2893 7.94595 12 7.94595C11.7107 7.94595 11.4762 7.70394 11.4762 7.40541V6.86486C11.4762 6.56633 11.7107 6.32432 12 6.32432Z" fill="#6592E2"/>
</svg>
