<svg width="48" height="48" viewBox="0 0 48 48" fill="none" xmlns="http://www.w3.org/2000/svg">
<rect width="48" height="48" rx="13" fill="#0EC0CB"/>
<g clip-path="url(#clip0_8101_7659)">
<path d="M33.9173 16.3509L19.9521 30.3151C19.8582 30.4094 19.7466 30.4842 19.6237 30.5352C19.5009 30.5862 19.3691 30.6125 19.2361 30.6125C19.103 30.6125 18.9713 30.5862 18.8484 30.5352C18.7256 30.4842 18.614 30.4094 18.5201 30.3151L13.1195 24.9095C13.0256 24.8152 12.9141 24.7404 12.7912 24.6894C12.6683 24.6384 12.5366 24.6121 12.4035 24.6121C12.2705 24.6121 12.1388 24.6384 12.0159 24.6894C11.893 24.7404 11.7814 24.8152 11.6875 24.9095C11.5933 25.0034 11.5185 25.115 11.4674 25.2378C11.4164 25.3607 11.3901 25.4924 11.3901 25.6255C11.3901 25.7585 11.4164 25.8903 11.4674 26.0131C11.5185 26.136 11.5933 26.2476 11.6875 26.3415L17.0901 31.743C17.66 32.3119 18.4324 32.6314 19.2376 32.6314C20.0428 32.6314 20.8152 32.3119 21.3851 31.743L35.3493 17.7819C35.4434 17.688 35.5181 17.5765 35.569 17.4537C35.62 17.3309 35.6462 17.1993 35.6462 17.0664C35.6462 16.9334 35.62 16.8018 35.569 16.679C35.5181 16.5563 35.4434 16.4447 35.3493 16.3509C35.2554 16.2566 35.1438 16.1818 35.021 16.1308C34.8981 16.0797 34.7664 16.0535 34.6333 16.0535C34.5003 16.0535 34.3685 16.0797 34.2457 16.1308C34.1228 16.1818 34.0112 16.2566 33.9173 16.3509Z" fill="white"/>
</g>
<defs>
<clipPath id="clip0_8101_7659">
<rect width="24.254" height="24.254" fill="white" transform="translate(11.3623 11.873)"/>
</clipPath>
</defs>
</svg>
