<svg width="48" height="48" viewBox="0 0 48 48" fill="none" xmlns="http://www.w3.org/2000/svg">
<rect width="48" height="48" rx="13" fill="#E25C5C"/>
<g clip-path="url(#clip0_8101_7637)">
<path d="M21.4468 23V16.607C21.4468 15.818 20.9004 15.136 20.1763 15.02C19.7147 14.95 19.2715 15.066 18.9232 15.356C18.579 15.642 18.3829 16.059 18.3829 16.5V29.175L14.8606 26.43C14.5327 26.131 14.1579 25.998 13.7341 26.001C13.3266 26.015 12.9477 26.183 12.6689 26.476C12.0919 27.08 12.1235 28.032 12.7394 28.597C12.7394 28.597 12.7424 28.6 12.7445 28.602L19.6248 35.097L19.0948 35.987L12.0367 29.322C12.0367 29.322 12.0347 29.319 12.0337 29.318C11.0155 28.375 10.9644 26.796 11.9234 25.792C12.8824 24.787 14.498 24.732 15.5275 25.673L17.3617 27.102V16.5C17.3617 15.766 17.6895 15.071 18.2624 14.595C18.8333 14.119 19.5952 13.914 20.3397 14.034C20.7533 14.1 21.1271 14.278 21.4468 14.526V14.5C21.4468 13.121 22.5916 12 24 12C25.0999 12 26.0313 12.688 26.3898 13.645C26.8422 13.249 27.4325 13 28.0851 13C29.4934 13 30.6383 14.121 30.6383 15.5V15.526C30.9579 15.278 31.3317 15.1 31.7453 15.034C32.4919 14.916 33.2527 15.119 33.8236 15.595C34.3955 16.072 34.7234 16.766 34.7234 17.5V25V30.324L33.7021 28.61V25.001V17.502C33.7021 17.062 33.506 16.645 33.1618 16.358C32.8136 16.068 32.3714 15.951 31.9087 16.022C31.1846 16.138 30.6383 16.82 30.6383 17.609V23.002H29.617V15.5C29.617 14.673 28.9297 14 28.0851 14C27.2405 14 26.5532 14.673 26.5532 15.5V23H25.5319V14.5C25.5319 13.673 24.8446 13 24 13C23.1554 13 22.4681 13.673 22.4681 14.5V23H21.4468ZM31.1489 36H35.7395L28.5957 24.008L21.4519 36H26.0425V35H23.2289L28.5957 25.992L33.9625 35H31.1489V36ZM29.1064 29H28.0851V33H29.1064V29ZM28.5957 34C28.032 34 27.5744 34.448 27.5744 35C27.5744 35.552 28.032 36 28.5957 36C29.1595 36 29.617 35.552 29.617 35C29.617 34.448 29.1595 34 28.5957 34Z" fill="white"/>
</g>
<defs>
<clipPath id="clip0_8101_7637">
<rect width="24.5106" height="24" fill="white" transform="translate(11.2339 12)"/>
</clipPath>
</defs>
</svg>
