<svg width="48" height="48" viewBox="0 0 48 48" fill="none" xmlns="http://www.w3.org/2000/svg">
<rect width="48" height="48" rx="13" fill="#F0BB1F"/>
<g clip-path="url(#clip0_8101_7615)">
<path d="M36.6376 17.4312V27.6381C36.6376 29.6593 35.8493 31.5693 34.4143 32.9942L31.4331 35.9754C31.332 36.0765 31.2006 36.127 31.0794 36.127C30.9581 36.127 30.8166 36.0765 30.7257 35.9754C30.5235 35.7733 30.5235 35.46 30.7257 35.2579L33.7069 32.2767C34.9499 31.0337 35.627 29.3864 35.627 27.628V17.4312C35.627 16.5925 34.9499 15.9154 34.1111 15.9154C33.2723 15.9154 32.5952 16.5925 32.5952 17.4312V25.5159C32.5952 25.5159 32.5952 25.5563 32.5952 25.5765C32.5851 26.1324 32.383 26.6781 32.0091 27.1328L29.3412 29.9119C29.2401 30.013 29.1087 30.0635 28.9774 30.0635C28.846 30.0635 28.7247 30.013 28.6237 29.922C28.4215 29.73 28.4114 29.4067 28.6135 29.2045L31.2613 26.4558C31.4836 26.193 31.5948 25.8696 31.5948 25.5361C31.5948 25.5361 31.5948 25.526 31.5948 25.5159V25.4654C31.5847 25.1218 31.4533 24.7782 31.2107 24.4952C30.9379 24.192 30.5741 24.0202 30.1698 23.9899C29.7757 23.9899 29.3816 24.1011 29.0784 24.374L26.3195 26.9105C25.794 27.3855 25.3797 27.9514 25.0765 28.5881C25.3797 29.346 25.5414 30.1646 25.5414 30.9933V35.6015C25.5414 35.8845 25.3191 36.1068 25.0361 36.1068C24.7531 36.1068 24.5308 35.8845 24.5308 35.6015V30.9933C24.5308 29.4471 23.8739 27.9514 22.732 26.9004L19.9731 24.3537C19.68 24.091 19.2859 23.9697 18.8816 23.9697C18.4774 23.9899 18.1035 24.1718 17.8407 24.475C17.3456 25.0308 17.3253 25.8797 17.8104 26.4558L20.4278 29.1843C20.6198 29.3864 20.6198 29.7098 20.4177 29.9018C20.2156 30.0938 19.8922 30.0938 19.7002 29.8917L17.0525 27.1429C16.6685 26.6882 16.4765 26.1425 16.4461 25.5968C16.4461 25.5664 16.4461 25.5361 16.4461 25.4957V17.4312C16.4461 16.5925 15.769 15.9154 14.9303 15.9154C14.0915 15.9154 13.4144 16.5925 13.4144 17.4312V27.6381C13.4144 29.3965 14.1016 31.0438 15.3345 32.2868L18.3157 35.268C18.5178 35.4701 18.5178 35.7834 18.3157 35.9855C18.2147 36.0866 18.0833 36.1371 17.962 36.1371C17.8407 36.1371 17.6993 36.0866 17.6083 35.9855L14.6271 33.0043C13.1921 31.5693 12.4038 29.6694 12.4038 27.6482V17.4312C12.4038 16.0366 13.5357 14.9048 14.9303 14.9048C16.3249 14.9048 17.4567 16.0366 17.4567 17.4312V23.4947C17.8508 23.2017 18.3258 23.0198 18.8311 22.9996C19.5082 22.949 20.155 23.1916 20.6502 23.6362L23.4192 26.1829C23.8537 26.577 24.2175 27.0318 24.5308 27.5169C24.834 27.0318 25.2079 26.577 25.6424 26.1829L28.4013 23.6362C28.9066 23.1815 29.5534 22.949 30.2305 22.9895C30.7358 23.0198 31.2107 23.1916 31.6049 23.4846V17.4312C31.6049 16.0366 32.7367 14.9048 34.1313 14.9048C35.5259 14.9048 36.6578 16.0366 36.6578 17.4312H36.6376ZM22.5197 17.2999L26.178 18.5227C26.6934 18.6945 27.037 19.1695 27.037 19.7152C27.037 20.4125 26.4711 20.9683 25.7839 20.9683H23.4495C22.8229 20.9683 22.2368 20.6348 21.9134 20.079C21.7719 19.8364 21.4687 19.7556 21.2262 19.8971C20.9837 20.0386 20.9028 20.3417 21.0443 20.5843C21.5395 21.4433 22.4591 21.9789 23.4495 21.9789H24.0053V22.4842C24.0053 22.7671 24.2276 22.9895 24.5106 22.9895C24.7935 22.9895 25.0159 22.7671 25.0159 22.4842V21.9789H25.7839C27.037 21.9789 28.0476 20.9582 28.0476 19.7152C28.0476 18.7349 27.4211 17.8759 26.5014 17.5626L22.8431 16.3398C22.3277 16.168 21.9841 15.693 21.9841 15.1473C21.9841 14.45 22.5501 13.8942 23.2373 13.8942H25.5717C26.1983 13.8942 26.7844 14.2277 27.1078 14.7835C27.2493 15.0261 27.5524 15.1069 27.795 14.9654C28.0375 14.8239 28.1184 14.5208 27.9769 14.2782C27.4817 13.4192 26.5621 12.8836 25.5717 12.8836H25.0159V12.3783C25.0159 12.0954 24.7935 11.873 24.5106 11.873C24.2276 11.873 24.0053 12.0954 24.0053 12.3783V12.8836H23.2373C21.9841 12.8836 20.9735 13.9043 20.9735 15.1473C20.9735 16.1276 21.6001 16.9866 22.5197 17.2999Z" fill="white"/>
</g>
<defs>
<clipPath id="clip0_8101_7615">
<rect width="24.254" height="24.254" fill="white" transform="translate(12.3838 11.873)"/>
</clipPath>
</defs>
</svg>
