<svg width="48" height="48" viewBox="0 0 48 48" fill="none" xmlns="http://www.w3.org/2000/svg">
<rect width="48" height="48" rx="13" fill="#6EBC30"/>
<g clip-path="url(#clip0_8101_7648)">
<path d="M18.8937 23.9999C22.2731 23.9999 25.0214 21.3089 25.0214 17.9999C25.0214 17.6589 24.9856 17.3259 24.9295 16.9999H27.0639C27.3458 16.9999 27.5746 16.7759 27.5746 16.4999C27.5746 16.2239 27.3458 15.9999 27.0639 15.9999H24.6639C23.8204 13.6729 21.5562 11.9999 18.8937 11.9999C15.5143 11.9999 12.7661 14.6909 12.7661 17.9999C12.7661 21.3089 15.5143 23.9999 18.8937 23.9999ZM18.8937 12.9999C20.9822 12.9999 22.7766 14.2369 23.5671 15.9999H14.2204C15.0108 14.2369 16.8052 12.9999 18.8937 12.9999ZM13.8905 16.9999H23.8969C23.9644 17.3229 24.0001 17.6579 24.0001 17.9999C24.0001 20.7569 21.7094 22.9999 18.8937 22.9999C16.0781 22.9999 13.7873 20.7569 13.7873 17.9999C13.7873 17.6579 13.8231 17.3229 13.8905 16.9999ZM24.6435 29.2499C25.2246 30.2329 25.532 31.3569 25.532 32.4999V35.4999C25.532 35.7759 25.3032 35.9999 25.0214 35.9999C24.7395 35.9999 24.5107 35.7759 24.5107 35.4999V32.4999C24.5107 31.5329 24.2513 30.5819 23.7601 29.7499C23.6181 29.5119 23.7019 29.2049 23.947 29.0669C24.187 28.9279 24.5015 29.0099 24.6435 29.2499ZM36.1002 13.5809C36.0746 13.5639 32.7535 12.1199 32.5523 12.0609C32.1049 11.9289 31.6331 12.0119 31.2542 12.2879C30.8682 12.5679 30.6374 13.0159 30.6374 13.4839V20.4999C30.6374 21.2819 30.2554 22.0299 29.6161 22.4999L25.2573 25.6999C24.9948 25.8929 24.668 25.9999 24.3392 25.9999H18.8927C15.2324 25.9999 12.2544 28.9159 12.2544 32.4999V35.4999C12.2544 35.7759 12.4832 35.9999 12.765 35.9999C13.0469 35.9999 13.2757 35.7759 13.2757 35.4999V32.4999C13.2757 29.4679 15.7962 26.9999 18.8927 26.9999H24.3392C24.8886 26.9999 25.4329 26.8219 25.8711 26.4999L30.2289 23.2999C31.1245 22.6429 31.6586 21.5959 31.6586 20.4999V18.3089L36.0992 16.1339C36.5158 15.8529 36.765 15.3759 36.765 14.8579C36.765 14.3399 36.5158 13.8629 36.0992 13.5819L36.1002 13.5809ZM35.5824 15.2739L31.6597 17.1909V13.4839C31.6597 13.3299 31.7352 13.1829 31.8629 13.0899C31.915 13.0519 32.01 12.9989 32.1315 12.9989C32.1713 12.9989 32.5758 13.1219 32.7289 13.1889L35.5518 14.4259C35.6733 14.5229 35.7448 14.6809 35.7448 14.8559C35.7448 15.0439 35.661 15.2149 35.5824 15.2739Z" fill="white"/>
</g>
<defs>
<clipPath id="clip0_8101_7648">
<rect width="24.5106" height="24" fill="white" transform="translate(12.2554 12)"/>
</clipPath>
</defs>
</svg>
