<svg width="48" height="48" viewBox="0 0 48 48" fill="none" xmlns="http://www.w3.org/2000/svg">
<rect width="48" height="48" rx="13" fill="#95C3DD"/>
<g clip-path="url(#clip0_8101_7626)">
<path d="M29.0475 23.0289C25.4256 23.0289 22.4787 25.9757 22.4787 29.5977C22.4787 33.1984 25.4256 36.127 29.0475 36.127C32.6694 36.127 35.6163 33.1802 35.6163 29.5582C35.6163 25.9575 32.6694 23.0289 29.0475 23.0289ZM29.0475 35.1164C25.9834 35.1164 23.4893 32.6405 23.4893 29.5977C23.4893 26.5326 25.9834 24.0394 29.0475 24.0394C32.1116 24.0394 34.6057 26.5154 34.6057 29.5582C34.6057 32.6233 32.1116 35.1164 29.0475 35.1164ZM30.4158 30.2111C30.6129 30.4081 30.6129 30.7285 30.4158 30.9256C30.3168 31.0246 30.1874 31.0731 30.0581 31.0731C29.9287 31.0731 29.7994 31.0236 29.7003 30.9256L28.6897 29.915C28.5948 29.82 28.5422 29.6916 28.5422 29.5572V27.5361C28.5422 27.2571 28.7686 27.0308 29.0475 27.0308C29.3264 27.0308 29.5528 27.2571 29.5528 27.5361V29.348L30.4158 30.2111ZM31.0687 13.8942H29.5528V12.3783C29.5528 12.0994 29.3264 11.873 29.0475 11.873C28.7686 11.873 28.5422 12.0994 28.5422 12.3783V13.8942H18.4364V12.3783C18.4364 12.0994 18.21 11.873 17.9311 11.873C17.6522 11.873 17.4258 12.0994 17.4258 12.3783V13.8942H15.9099C13.4027 13.8942 11.3623 15.9346 11.3623 18.4418V31.5794C11.3623 34.0867 13.4027 36.127 15.9099 36.127H21.9734C22.2523 36.127 22.4787 35.9007 22.4787 35.6217C22.4787 35.3428 22.2523 35.1164 21.9734 35.1164H15.9099C13.9595 35.1164 12.3729 33.5298 12.3729 31.5794V20.9683H34.6057V22.4842C34.6057 22.7631 34.8321 22.9895 35.111 22.9895C35.3899 22.9895 35.6163 22.7631 35.6163 22.4842V18.4418C35.6163 15.9346 33.5759 13.8942 31.0687 13.8942ZM12.3729 19.9577V18.4418C12.3729 16.4914 13.9595 14.9048 15.9099 14.9048H31.0687C33.0191 14.9048 34.6057 16.4914 34.6057 18.4418V19.9577H12.3729Z" fill="white"/>
</g>
<defs>
<clipPath id="clip0_8101_7626">
<rect width="24.254" height="24.254" fill="white" transform="translate(11.3623 11.873)"/>
</clipPath>
</defs>
</svg>
