<svg width="24" height="14" viewBox="0 0 24 14" fill="none" xmlns="http://www.w3.org/2000/svg">
<path fill-rule="evenodd" clip-rule="evenodd" d="M1.3576 1.25524C0.911669 1.6267 0.877636 2.26688 1.28455 2.67777L11.2088 12.677C11.2091 12.6772 11.2086 12.6767 11.2088 12.677C11.4144 12.8848 11.703 13 11.9999 13C12.2969 13 12.5848 12.8855 12.7904 12.6777C12.7902 12.6779 12.7906 12.6774 12.7904 12.6777L22.7149 2.67821C22.9029 2.4882 23 2.24492 23 2.00021C23 1.72451 22.8776 1.45087 22.6419 1.2549C22.2051 0.8914 21.5343 0.919336 21.1348 1.32167L11.9999 10.5255L2.86517 1.32176C2.46556 0.919325 1.79436 0.89143 1.3576 1.25524Z" fill="black"/>
<path d="M11.2088 12.677C11.2091 12.6772 11.2086 12.6767 11.2088 12.677ZM11.2088 12.677C11.4144 12.8848 11.703 13 11.9999 13C12.2969 13 12.5848 12.8855 12.7904 12.6777M11.2088 12.677L1.28455 2.67777C0.877636 2.26688 0.911669 1.6267 1.3576 1.25524C1.79436 0.891429 2.46556 0.919325 2.86517 1.32176L11.9999 10.5255L21.1348 1.32167C21.5343 0.919336 22.2051 0.8914 22.6419 1.2549C22.8776 1.45087 23 1.72451 23 2.00021C23 2.24492 22.9029 2.4882 22.7149 2.67821L12.7904 12.6777M12.7904 12.6777C12.7906 12.6774 12.7902 12.6779 12.7904 12.6777Z" stroke="black" stroke-width="0.5"/>
</svg>
