<svg width="26" height="26" viewBox="0 0 26 26" fill="none" xmlns="http://www.w3.org/2000/svg">
<path d="M22.7222 0.5C23.4589 0.5 24.1655 0.792658 24.6864 1.31359C25.2073 1.83453 25.5 2.54107 25.5 3.27778V22.7222C25.5 24.2639 24.25 25.5 22.7222 25.5H3.27778C2.54107 25.5 1.83453 25.2073 1.31359 24.6864C0.792658 24.1655 0.5 23.4589 0.5 22.7222V3.27778C0.5 2.54107 0.792658 1.83453 1.31359 1.31359C1.83453 0.792658 2.54107 0.5 3.27778 0.5H22.7222ZM19.5278 9.31944C19.8333 9.02778 19.8333 8.54167 19.5278 8.25L17.75 6.47222C17.4583 6.16667 16.9722 6.16667 16.6806 6.47222L15.2917 7.86111L18.1389 10.7083L19.5278 9.31944ZM6.05556 17.0833V19.9444H8.91667L17.3333 11.5278L14.4722 8.66667L6.05556 17.0833Z" fill="white"/>
</svg>
