<svg width="100" height="101" viewBox="0 0 100 101" fill="none" xmlns="http://www.w3.org/2000/svg">
<rect y="0.559937" width="100" height="100" rx="50" fill="white"/>
<path d="M35.2994 47.8276H67.1431C76.7304 47.8276 76.7304 38.9251 67.1431 38.9251H45.2291C36.669 38.9251 36.3266 28.3105 45.2291 28.3105H62.3494" stroke="#D4D9D9" stroke-opacity="0.5" stroke-width="2"/>
<g opacity="0.25">
<rect x="63" y="13.5" width="2" height="16" rx="1" fill="#161616"/>
<path d="M64.0661 14.2842L72.3052 18.5375L64.1547 22.9582L64.0661 14.2842Z" fill="#68B9CF" stroke="#161616"/>
</g>
<path d="M67.8571 19.4999H60.1006C59.5988 19.4999 59.1916 19.8953 59.1916 20.3826V25.1098C59.1916 25.5976 59.5988 25.9925 60.1006 25.9925H67.8571C68.3589 25.9925 68.7661 25.5976 68.7661 25.1098V20.3826C68.7661 19.8953 68.3589 19.4999 67.8571 19.4999ZM66.9481 24.227L63.9541 25.5805L61.0095 24.227V21.2653H66.9481V24.227Z" fill="#525C74"/>
<path d="M68.7661 20.3826V25.1098C68.7661 25.5976 68.3589 25.9925 67.8572 25.9925H63.954V25.6394L66.9482 24.227V21.2653H63.954V19.4999H67.8572C68.3589 19.4999 68.7661 19.8953 68.7661 20.3826Z" fill="#444E66"/>
<path d="M72.2808 27.503L71.9172 46.6283C71.9172 48.3219 70.8131 48.5114 69.0691 48.5114L63.5304 49.6294H60.9695L60.1612 49.3352L59.1516 49.6294H57.9312C56.1872 49.6294 54.7679 48.2512 54.7679 46.5576V29.7745L55.1315 28.9153L54.7679 28.0091V27.2982C54.7679 25.6046 56.1872 24.2258 57.9312 24.2258H59.1892L60.04 24.7961L61.0095 24.2258H63.5304L66.827 25.5022L69.8569 24.8549C71.1763 28.7512 72.2753 25.8596 72.2808 27.503Z" fill="#68B9CF"/>
<path d="M73.1403 27.2981V46.5574C73.1403 48.2511 71.721 49.6295 69.9768 49.6295H63.9541V24.7557L64.9275 24.2261H69.9769C71.721 24.2261 73.1403 25.6043 73.1403 27.2981Z" fill="#68B9CF"/>
<path d="M73.1401 28.0091H65.3484V24.2258H63.5304V28.0091H61.0015L61.0071 24.2258H59.1892L59.1836 28.0091H54.7679V29.7745H59.181L59.1516 49.6294H60.9695L60.9989 29.7745H63.5304V49.6294H65.3484V29.7745H73.1401V28.0091Z" fill="#4AB7D3"/>
<path d="M73.1403 28.007H64.9275V24.2261H63.9541V49.6295H64.9275V29.7793H73.1403V28.007Z" fill="#42A8C3"/>
<path d="M55.7902 31.7882H50.4755C48.7539 31.7882 47.3535 33.1482 47.3535 34.8201V36.4553C47.3535 36.9445 47.7622 37.3415 48.266 37.3415H57.9997C58.5034 37.3415 58.9122 36.9445 58.9122 36.4553V34.8201C58.9122 33.1482 57.5118 31.7882 55.7902 31.7882ZM57.0871 35.5692L53.1328 36.4519L49.1785 35.5692V34.8201C49.1785 34.1253 49.76 33.5605 50.4755 33.5605H55.7902C56.5056 33.5605 57.0872 34.1252 57.0872 34.8201V35.5692H57.0871Z" fill="#525C74"/>
<path d="M58.9123 34.82V36.4553C58.9123 36.9444 58.5035 37.3415 57.9997 37.3415H53.1329V36.6872L57.0872 35.5691V34.82C57.0872 34.1252 56.5056 33.5604 55.7902 33.5604H53.1329V31.7881H55.7902C57.5119 31.7881 58.9123 33.1481 58.9123 34.82Z" fill="#444E66"/>
<path d="M64.2658 38.1142V47.0845C64.2658 48.4876 63.0899 49.6296 61.645 49.6296H44.6208C43.176 49.6296 42 48.4876 42 47.0845V38.1142C42 36.7111 43.176 35.5691 44.6208 35.5691H61.645C63.0899 35.5691 64.2658 36.711 64.2658 38.1142Z" fill="#FFCAAF"/>
<path d="M64.2658 38.1142V47.0845C64.2658 48.4876 63.0899 49.6296 61.645 49.6296H53.1329V35.5691H61.645C63.0899 35.5691 64.2658 36.711 64.2658 38.1142Z" fill="#FFBFAB"/>
<path d="M42.642 31.821C42.642 36.9688 37.3157 45.1367 33.321 50.1967C31.4568 47.5335 24 36.9688 24 31.821C24 26.6732 28.1732 22.5 33.321 22.5C38.4688 22.5 42.642 26.6732 42.642 31.821Z" fill="#FF6B34"/>
<circle cx="33.0547" cy="32.0874" r="4.79366" fill="#FFF9F9"/>
<path d="M30.6703 63.6359H31.6663V71.4959H30.6703V63.6359ZM31.3543 66.8519H33.2743V67.6799H31.3543V66.8519ZM23.7463 68.7479H24.5863C25.3303 68.7479 25.9823 68.7399 26.5423 68.7239C27.1023 68.7079 27.6183 68.6719 28.0903 68.6159C28.5623 68.5599 29.0383 68.4839 29.5183 68.3879L29.6383 69.2039C29.1343 69.2999 28.6383 69.3759 28.1503 69.4319C27.6703 69.4879 27.1463 69.5279 26.5783 69.5519C26.0103 69.5679 25.3463 69.5759 24.5863 69.5759H23.7463V68.7479ZM23.7463 64.5719H28.5343V65.3879H24.7303V69.1919H23.7463V64.5719ZM24.9103 73.4399H32.1463V74.2559H24.9103V73.4399ZM24.9103 70.7039H25.8943V73.8119H24.9103V70.7039ZM34.1614 69.0479H43.9654V69.8519H34.1614V69.0479ZM38.5654 67.1879H39.5614V69.3719H38.5654V67.1879ZM35.2534 70.9079H42.7654V74.5799H41.7814V71.7119H35.2534V70.9079ZM35.3974 66.9359H42.8494V67.7519H35.3974V66.9359ZM35.3974 64.0799H42.7534V64.8839H36.3934V67.3559H35.3974V64.0799ZM53.3485 63.6359H54.3085V74.4959H53.3485V63.6359ZM51.6205 68.0039H53.7085V68.8319H51.6205V68.0039ZM50.9845 63.8759H51.9325V73.9319H50.9845V63.8759ZM45.1885 65.0039H50.2045V65.8199H45.1885V65.0039ZM45.0805 71.8199L44.9605 70.9799C45.3205 70.9799 45.7245 70.9799 46.1725 70.9799C46.6285 70.9719 47.1005 70.9599 47.5885 70.9439C48.0845 70.9199 48.5725 70.8919 49.0525 70.8599C49.5405 70.8199 49.9925 70.7719 50.4085 70.7159L50.4685 71.4479C49.9085 71.5519 49.2965 71.6319 48.6325 71.6879C47.9765 71.7439 47.3405 71.7799 46.7245 71.7959C46.1085 71.8119 45.5605 71.8199 45.0805 71.8199ZM46.1125 65.5319H47.0245V71.2079H46.1125V65.5319ZM48.3685 65.5319H49.2805V71.2079H48.3685V65.5319ZM60.8115 64.7639H61.7715C61.7715 65.5479 61.6915 66.3159 61.5315 67.0679C61.3715 67.8119 61.1035 68.5239 60.7275 69.2039C60.3515 69.8839 59.8395 70.5199 59.1915 71.1119C58.5435 71.7039 57.7315 72.2399 56.7555 72.7199L56.2155 71.9399C57.0715 71.5239 57.7915 71.0599 58.3755 70.5479C58.9675 70.0359 59.4395 69.4839 59.7915 68.8919C60.1515 68.2999 60.4115 67.6679 60.5715 66.9959C60.7315 66.3239 60.8115 65.6159 60.8115 64.8719V64.7639ZM56.8035 64.7639H61.3155V65.5799H56.8035V64.7639ZM60.6555 67.4519V68.2319L56.4195 68.6279L56.2515 67.7519L60.6555 67.4519ZM63.9075 63.6359H64.9035V74.4959H63.9075V63.6359ZM69.7866 65.1959H70.6026V66.9479C70.6026 67.5239 70.5226 68.0919 70.3626 68.6519C70.2026 69.2039 69.9786 69.7279 69.6906 70.2239C69.4106 70.7119 69.0826 71.1439 68.7066 71.5199C68.3306 71.8959 67.9266 72.1919 67.4946 72.4079L66.9186 71.6159C67.3106 71.4239 67.6786 71.1639 68.0226 70.8359C68.3746 70.5079 68.6826 70.1319 68.9466 69.7079C69.2106 69.2839 69.4146 68.8359 69.5586 68.3639C69.7106 67.8919 69.7866 67.4199 69.7866 66.9479V65.1959ZM69.9906 65.1959H70.7946V66.9479C70.7946 67.4039 70.8666 67.8599 71.0106 68.3159C71.1626 68.7639 71.3706 69.1879 71.6346 69.5879C71.9066 69.9799 72.2146 70.3279 72.5586 70.6319C72.9106 70.9359 73.2866 71.1759 73.6866 71.3519L73.1346 72.1439C72.6946 71.9359 72.2826 71.6559 71.8986 71.3039C71.5146 70.9519 71.1786 70.5479 70.8906 70.0919C70.6106 69.6279 70.3906 69.1319 70.2306 68.6039C70.0706 68.0679 69.9906 67.5159 69.9906 66.9479V65.1959ZM67.2666 64.7519H73.3266V65.5799H67.2666V64.7519ZM74.8026 63.6359H75.7986V74.4959H74.8026V63.6359Z" fill="#152123"/>
</svg>
