<svg width="100" height="101" viewBox="0 0 100 101" fill="none" xmlns="http://www.w3.org/2000/svg">
<rect y="0.559937" width="100" height="100" rx="50" fill="white"/>
<path d="M35 51.5599L38.6515 43.4204L43.0873 47.8849L35 51.5599Z" fill="white"/>
<path d="M38.5299 43.5737L59.1742 22.7961L63.5829 27.2333L42.9386 48.0109L38.5299 43.5737Z" fill="#EDB72B"/>
<path d="M56.4654 25.5223L59.1742 22.7961L63.5829 27.2333L60.8741 29.9595L56.4654 25.5223Z" fill="#E25C5C"/>
<path d="M59.4728 23.6044L61.5042 21.5599L65 25.0783L62.9686 27.1228L59.4728 23.6044Z" fill="#2F312A"/>
<path d="M35 51.5599L36.5486 48.1079L38.4299 50.0013L35 51.5599Z" fill="#152123"/>
<path d="M43.6519 45.558C43.3198 45.8922 42.7814 45.8922 42.4494 45.558C42.1173 45.2238 42.1173 44.6819 42.4494 44.3477L47.2269 39.5393C47.559 39.2051 48.0974 39.2051 48.4295 39.5393C48.7616 39.8735 48.7616 40.4154 48.4295 40.7496L43.6519 45.558Z" fill="#E25C5C"/>
<path d="M30.6703 65.6359H31.6663V73.4959H30.6703V65.6359ZM31.3543 68.8519H33.2743V69.6799H31.3543V68.8519ZM23.7463 70.7479H24.5863C25.3303 70.7479 25.9823 70.7399 26.5423 70.7239C27.1023 70.7079 27.6183 70.6719 28.0903 70.6159C28.5623 70.5599 29.0383 70.4839 29.5183 70.3879L29.6383 71.2039C29.1343 71.2999 28.6383 71.3759 28.1503 71.4319C27.6703 71.4879 27.1463 71.5279 26.5783 71.5519C26.0103 71.5679 25.3463 71.5759 24.5863 71.5759H23.7463V70.7479ZM23.7463 66.5719H28.5343V67.3879H24.7303V71.1919H23.7463V66.5719ZM24.9103 75.4399H32.1463V76.2559H24.9103V75.4399ZM24.9103 72.7039H25.8943V75.8119H24.9103V72.7039ZM34.1614 71.0479H43.9654V71.8519H34.1614V71.0479ZM38.5654 69.1879H39.5614V71.3719H38.5654V69.1879ZM35.2534 72.9079H42.7654V76.5799H41.7814V73.7119H35.2534V72.9079ZM35.3974 68.9359H42.8494V69.7519H35.3974V68.9359ZM35.3974 66.0799H42.7534V66.8839H36.3934V69.3559H35.3974V66.0799ZM53.3485 65.6359H54.3085V76.4959H53.3485V65.6359ZM51.6205 70.0039H53.7085V70.8319H51.6205V70.0039ZM50.9845 65.8759H51.9325V75.9319H50.9845V65.8759ZM45.1885 67.0039H50.2045V67.8199H45.1885V67.0039ZM45.0805 73.8199L44.9605 72.9799C45.3205 72.9799 45.7245 72.9799 46.1725 72.9799C46.6285 72.9719 47.1005 72.9599 47.5885 72.9439C48.0845 72.9199 48.5725 72.8919 49.0525 72.8599C49.5405 72.8199 49.9925 72.7719 50.4085 72.7159L50.4685 73.4479C49.9085 73.5519 49.2965 73.6319 48.6325 73.6879C47.9765 73.7439 47.3405 73.7799 46.7245 73.7959C46.1085 73.8119 45.5605 73.8199 45.0805 73.8199ZM46.1125 67.5319H47.0245V73.2079H46.1125V67.5319ZM48.3685 67.5319H49.2805V73.2079H48.3685V67.5319ZM60.8115 66.7639H61.7715C61.7715 67.5479 61.6915 68.3159 61.5315 69.0679C61.3715 69.8119 61.1035 70.5239 60.7275 71.2039C60.3515 71.8839 59.8395 72.5199 59.1915 73.1119C58.5435 73.7039 57.7315 74.2399 56.7555 74.7199L56.2155 73.9399C57.0715 73.5239 57.7915 73.0599 58.3755 72.5479C58.9675 72.0359 59.4395 71.4839 59.7915 70.8919C60.1515 70.2999 60.4115 69.6679 60.5715 68.9959C60.7315 68.3239 60.8115 67.6159 60.8115 66.8719V66.7639ZM56.8035 66.7639H61.3155V67.5799H56.8035V66.7639ZM60.6555 69.4519V70.2319L56.4195 70.6279L56.2515 69.7519L60.6555 69.4519ZM63.9075 65.6359H64.9035V76.4959H63.9075V65.6359ZM69.7866 67.1959H70.6026V68.9479C70.6026 69.5239 70.5226 70.0919 70.3626 70.6519C70.2026 71.2039 69.9786 71.7279 69.6906 72.2239C69.4106 72.7119 69.0826 73.1439 68.7066 73.5199C68.3306 73.8959 67.9266 74.1919 67.4946 74.4079L66.9186 73.6159C67.3106 73.4239 67.6786 73.1639 68.0226 72.8359C68.3746 72.5079 68.6826 72.1319 68.9466 71.7079C69.2106 71.2839 69.4146 70.8359 69.5586 70.3639C69.7106 69.8919 69.7866 69.4199 69.7866 68.9479V67.1959ZM69.9906 67.1959H70.7946V68.9479C70.7946 69.4039 70.8666 69.8599 71.0106 70.3159C71.1626 70.7639 71.3706 71.1879 71.6346 71.5879C71.9066 71.9799 72.2146 72.3279 72.5586 72.6319C72.9106 72.9359 73.2866 73.1759 73.6866 73.3519L73.1346 74.1439C72.6946 73.9359 72.2826 73.6559 71.8986 73.3039C71.5146 72.9519 71.1786 72.5479 70.8906 72.0919C70.6106 71.6279 70.3906 71.1319 70.2306 70.6039C70.0706 70.0679 69.9906 69.5159 69.9906 68.9479V67.1959ZM67.2666 66.7519H73.3266V67.5799H67.2666V66.7519ZM74.8026 65.6359H75.7986V76.4959H74.8026V65.6359Z" fill="#152123"/>
</svg>
