<svg width="100" height="101" viewBox="0 0 100 101" fill="none" xmlns="http://www.w3.org/2000/svg">
<rect y="0.559937" width="100" height="100" rx="50" fill="white"/>
<path d="M32.5 24.9539C32.5 24.0779 33.1926 23.3678 34.047 23.3678H65.9529C66.8073 23.3678 67.5 24.0779 67.5 24.9539V26.2118C67.5 27.0878 66.8073 27.7979 65.9529 27.7979H34.047C33.1926 27.7979 32.5 27.0878 32.5 26.2118V24.9539Z" fill="#6EBC30"/>
<path d="M32.5 36.0292C32.5 35.1533 33.1927 34.4431 34.0471 34.4431H65.953C66.8074 34.4431 67.5 35.1533 67.5 36.0292V37.2872C67.5 38.1631 66.8074 38.8732 65.953 38.8732H34.0471C33.1927 38.8732 32.5 38.1631 32.5 37.2872V36.0292Z" fill="#E25C5C"/>
<path d="M32.5 47.1044C32.5 46.2284 33.1927 45.5183 34.0471 45.5183H65.953C66.8074 45.5183 67.5 46.2284 67.5 47.1044V48.3623C67.5 49.2383 66.8074 49.9484 65.953 49.9484H34.0471C33.1927 49.9484 32.5 49.2383 32.5 48.3623V47.1044Z" fill="#0EC0CB"/>
<path d="M51.9443 25.4721C51.9443 26.5119 51.1221 27.3549 50.1079 27.3549C49.0937 27.3549 48.2715 26.5119 48.2715 25.4721C48.2715 24.4322 49.0937 23.5893 50.1079 23.5893C51.1221 23.5893 51.9443 24.4322 51.9443 25.4721Z" fill="white"/>
<path d="M60.8024 36.5474C60.8024 37.5873 59.9802 38.4302 58.966 38.4302C57.9517 38.4302 57.1296 37.5873 57.1296 36.5474C57.1296 35.5076 57.9517 34.6646 58.966 34.6646C59.9802 34.6646 60.8024 35.5076 60.8024 36.5474Z" fill="white"/>
<path d="M42.8703 47.6227C42.8703 48.6625 42.0481 49.5055 41.0339 49.5055C40.0197 49.5055 39.1975 48.6625 39.1975 47.6227C39.1975 46.5829 40.0197 45.7399 41.0339 45.7399C42.0481 45.7399 42.8703 46.5829 42.8703 47.6227Z" fill="white"/>
<path d="M32.5 24.9539C32.5 24.0779 33.1926 23.3678 34.047 23.3678H65.9529C66.8073 23.3678 67.5 24.0779 67.5 24.9539V26.2118C67.5 27.0878 66.8073 27.7979 65.9529 27.7979H34.047C33.1926 27.7979 32.5 27.0878 32.5 26.2118V24.9539Z" fill="#6EBC30"/>
<path d="M32.5 36.0292C32.5 35.1533 33.1927 34.4431 34.0471 34.4431H65.953C66.8074 34.4431 67.5 35.1533 67.5 36.0292V37.2872C67.5 38.1631 66.8074 38.8732 65.953 38.8732H34.0471C33.1927 38.8732 32.5 38.1631 32.5 37.2872V36.0292Z" fill="#E25C5C"/>
<path d="M32.5 47.1044C32.5 46.2284 33.1927 45.5183 34.0471 45.5183H65.953C66.8074 45.5183 67.5 46.2284 67.5 47.1044V48.3623C67.5 49.2383 66.8074 49.9484 65.953 49.9484H34.0471C33.1927 49.9484 32.5 49.2383 32.5 48.3623V47.1044Z" fill="#0EC0CB"/>
<path d="M44.8603 47.6806C44.8603 49.8231 43.1662 51.5599 41.0765 51.5599C38.9868 51.5599 37.2928 49.8231 37.2928 47.6806C37.2928 45.5381 38.9868 43.8013 41.0765 43.8013C43.1662 43.8013 44.8603 45.5381 44.8603 47.6806Z" fill="#2F312A"/>
<path d="M62.7701 36.5599C62.7701 38.7024 61.076 40.4392 58.9863 40.4392C56.8966 40.4392 55.2026 38.7024 55.2026 36.5599C55.2026 34.4175 56.8966 32.6806 58.9863 32.6806C61.076 32.6806 62.7701 34.4175 62.7701 36.5599Z" fill="#2F312A"/>
<path d="M53.9413 25.4392C53.9413 27.5817 52.2473 29.3186 50.1576 29.3186C48.0678 29.3186 46.3738 27.5817 46.3738 25.4392C46.3738 23.2968 48.0678 21.5599 50.1576 21.5599C52.2473 21.5599 53.9413 23.2968 53.9413 25.4392Z" fill="#2F312A"/>
<path d="M51.9443 25.4721C51.9443 26.5119 51.1221 27.3549 50.1079 27.3549C49.0937 27.3549 48.2715 26.5119 48.2715 25.4721C48.2715 24.4322 49.0937 23.5893 50.1079 23.5893C51.1221 23.5893 51.9443 24.4322 51.9443 25.4721Z" fill="white"/>
<path d="M60.8024 36.5474C60.8024 37.5873 59.9802 38.4302 58.966 38.4302C57.9517 38.4302 57.1296 37.5873 57.1296 36.5474C57.1296 35.5076 57.9517 34.6646 58.966 34.6646C59.9802 34.6646 60.8024 35.5076 60.8024 36.5474Z" fill="white"/>
<path d="M42.8703 47.6227C42.8703 48.6625 42.0481 49.5055 41.0339 49.5055C40.0197 49.5055 39.1975 48.6625 39.1975 47.6227C39.1975 46.5829 40.0197 45.7399 41.0339 45.7399C42.0481 45.7399 42.8703 46.5829 42.8703 47.6227Z" fill="white"/>
<path d="M29.1459 66.3799H34.1379V71.0239H29.1459V66.3799ZM33.1659 67.1839H30.1179V70.2199H33.1659V67.1839ZM36.1299 65.6359H37.1259V71.8279H36.1299V65.6359ZM36.8499 68.2399H38.7219V69.0679H36.8499V68.2399ZM33.2379 72.8359H34.0779V73.1239C34.0779 73.5479 33.9739 73.9439 33.7659 74.3119C33.5659 74.6799 33.2819 75.0079 32.9139 75.2959C32.5539 75.5839 32.1379 75.8239 31.6659 76.0159C31.1939 76.2159 30.6899 76.3599 30.1539 76.4479L29.7819 75.6799C30.2459 75.6159 30.6859 75.5039 31.1019 75.3439C31.5179 75.1839 31.8859 74.9919 32.2059 74.7679C32.5259 74.5359 32.7779 74.2799 32.9619 73.9999C33.1459 73.7199 33.2379 73.4279 33.2379 73.1239V72.8359ZM33.4179 72.8359H34.2699V73.1239C34.2699 73.4279 34.3619 73.7159 34.5459 73.9879C34.7379 74.2599 34.9939 74.5119 35.3139 74.7439C35.6339 74.9759 35.9979 75.1759 36.4059 75.3439C36.8219 75.5039 37.2619 75.6199 37.7259 75.6919L37.3539 76.4599C36.8179 76.3639 36.3139 76.2159 35.8419 76.0159C35.3699 75.8239 34.9499 75.5839 34.5819 75.2959C34.2219 74.9999 33.9379 74.6679 33.7299 74.2999C33.5219 73.9319 33.4179 73.5399 33.4179 73.1239V72.8359ZM30.2019 72.4639H37.3059V73.2679H30.2019V72.4639ZM44.0249 71.6239H45.0089V73.3279H44.0249V71.6239ZM39.6209 70.9999H49.4249V71.8039H39.6209V70.9999ZM44.0249 65.5759H45.0089V67.0879H44.0249V65.5759ZM43.9769 67.1839H44.8529V67.3519C44.8529 67.7919 44.7369 68.1879 44.5049 68.5399C44.2809 68.8839 43.9649 69.1839 43.5569 69.4399C43.1569 69.6879 42.6929 69.8879 42.1649 70.0399C41.6369 70.1919 41.0769 70.2999 40.4849 70.3639L40.1849 69.6079C40.7129 69.5679 41.2049 69.4839 41.6609 69.3559C42.1249 69.2279 42.5289 69.0679 42.8729 68.8759C43.2169 68.6839 43.4849 68.4599 43.6769 68.2039C43.8769 67.9399 43.9769 67.6559 43.9769 67.3519V67.1839ZM44.1929 67.1839H45.0569V67.3519C45.0569 67.6559 45.1529 67.9399 45.3449 68.2039C45.5449 68.4599 45.8169 68.6839 46.1609 68.8759C46.5129 69.0679 46.9169 69.2279 47.3729 69.3559C47.8289 69.4839 48.3209 69.5679 48.8489 69.6079L48.5609 70.3639C47.9609 70.2999 47.3969 70.1919 46.8689 70.0399C46.3489 69.8879 45.8849 69.6879 45.4769 69.4399C45.0769 69.1839 44.7609 68.8839 44.5289 68.5399C44.3049 68.1879 44.1929 67.7919 44.1929 67.3519V67.1839ZM40.6289 66.6559H48.4289V67.4479H40.6289V66.6559ZM40.8209 72.9799H48.2249V76.3519H40.8209V72.9799ZM47.2529 73.7839H41.7929V75.5359H47.2529V73.7839ZM55.424 68.0599H58.712V68.8759H55.424V68.0599ZM55.424 71.4919H58.712V72.3079H55.424V71.4919ZM53.432 66.4759C53.96 66.4759 54.428 66.6319 54.836 66.9439C55.244 67.2479 55.56 67.6839 55.784 68.2519C56.016 68.8199 56.132 69.4879 56.132 70.2559C56.132 71.0239 56.016 71.6919 55.784 72.2599C55.56 72.8279 55.244 73.2679 54.836 73.5799C54.428 73.8919 53.96 74.0479 53.432 74.0479C52.912 74.0479 52.444 73.8919 52.028 73.5799C51.62 73.2679 51.3 72.8279 51.068 72.2599C50.844 71.6919 50.732 71.0239 50.732 70.2559C50.732 69.4879 50.844 68.8199 51.068 68.2519C51.3 67.6839 51.62 67.2479 52.028 66.9439C52.444 66.6319 52.912 66.4759 53.432 66.4759ZM53.432 67.3639C53.088 67.3639 52.784 67.4839 52.52 67.7239C52.256 67.9559 52.048 68.2919 51.896 68.7319C51.752 69.1639 51.68 69.6719 51.68 70.2559C51.68 70.8399 51.752 71.3519 51.896 71.7919C52.048 72.2239 52.256 72.5599 52.52 72.7999C52.784 73.0399 53.088 73.1599 53.432 73.1599C53.784 73.1599 54.092 73.0399 54.356 72.7999C54.62 72.5599 54.824 72.2239 54.968 71.7919C55.12 71.3519 55.196 70.8399 55.196 70.2559C55.196 69.6719 55.12 69.1639 54.968 68.7319C54.824 68.2919 54.62 67.9559 54.356 67.7239C54.092 67.4839 53.784 67.3639 53.432 67.3639ZM58.484 65.6359H59.468V76.5079H58.484V65.6359ZM69.6551 65.6359H70.6031V72.4999H69.6551V65.6359ZM67.8791 68.5879H69.9311V69.4039H67.8791V68.5879ZM67.3271 65.8519H68.2631V72.1159H67.3271V65.8519ZM61.3991 66.9319H66.8951V67.7239H61.3991V66.9319ZM64.1591 68.2879C64.6151 68.2879 65.0151 68.3639 65.3591 68.5159C65.7111 68.6679 65.9831 68.8839 66.1751 69.1639C66.3751 69.4439 66.4751 69.7719 66.4751 70.1479C66.4751 70.5239 66.3751 70.8519 66.1751 71.1319C65.9831 71.4039 65.7111 71.6159 65.3591 71.7679C65.0151 71.9199 64.6151 71.9959 64.1591 71.9959C63.7111 71.9959 63.3111 71.9199 62.9591 71.7679C62.6071 71.6159 62.3351 71.4039 62.1431 71.1319C61.9511 70.8519 61.8551 70.5239 61.8551 70.1479C61.8551 69.7719 61.9511 69.4439 62.1431 69.1639C62.3351 68.8839 62.6071 68.6679 62.9591 68.5159C63.3111 68.3639 63.7111 68.2879 64.1591 68.2879ZM64.1591 69.0319C63.7431 69.0319 63.4031 69.1319 63.1391 69.3319C62.8751 69.5319 62.7431 69.8039 62.7431 70.1479C62.7431 70.4839 62.8711 70.7559 63.1271 70.9639C63.3911 71.1639 63.7351 71.2639 64.1591 71.2639C64.5831 71.2639 64.9231 71.1639 65.1791 70.9639C65.4431 70.7559 65.5751 70.4839 65.5751 70.1479C65.5751 69.8039 65.4431 69.5319 65.1791 69.3319C64.9231 69.1319 64.5831 69.0319 64.1591 69.0319ZM63.6671 65.7199H64.6511V67.3879H63.6671V65.7199ZM67.0391 72.6919C68.1751 72.6919 69.0631 72.8559 69.7031 73.1839C70.3431 73.5119 70.6631 73.9799 70.6631 74.5879C70.6631 75.1879 70.3431 75.6519 69.7031 75.9799C69.0631 76.3079 68.1751 76.4719 67.0391 76.4719C65.9031 76.4719 65.0151 76.3079 64.3751 75.9799C63.7351 75.6519 63.4151 75.1879 63.4151 74.5879C63.4151 73.9799 63.7351 73.5119 64.3751 73.1839C65.0151 72.8559 65.9031 72.6919 67.0391 72.6919ZM67.0391 73.4599C66.2071 73.4599 65.5591 73.5559 65.0951 73.7479C64.6311 73.9399 64.3991 74.2199 64.3991 74.5879C64.3991 74.9479 64.6311 75.2239 65.0951 75.4159C65.5591 75.6079 66.2071 75.7039 67.0391 75.7039C67.8631 75.7039 68.5071 75.6079 68.9711 75.4159C69.4351 75.2239 69.6671 74.9479 69.6671 74.5879C69.6671 74.2199 69.4351 73.9399 68.9711 73.7479C68.5071 73.5559 67.8631 73.4599 67.0391 73.4599Z" fill="#152123"/>
</svg>
