<svg width="30" height="30" viewBox="0 0 30 30" fill="none" xmlns="http://www.w3.org/2000/svg">
<g opacity="0.4">
<path d="M9.58385 15.0001C11.6549 15.0001 13.3337 13.1686 13.3337 10.9093C13.3337 8.65001 11.6549 6.81848 9.58385 6.81848C7.51285 6.81848 5.83396 8.65001 5.83396 10.9093C5.83396 13.1686 7.51285 15.0001 9.58385 15.0001Z" fill="white"/>
<path d="M13.8538 17.2726C12.3872 16.4601 10.7685 16.1362 9.58313 16.1362C7.26132 16.1362 2.5 17.6896 2.5 20.7952V23.1815H10.3123V22.2685C10.3123 21.189 10.7289 20.1066 11.4581 19.2043C12.0398 18.4839 12.8544 17.8152 13.8538 17.2726Z" fill="white"/>
<path d="M19.3752 16.8183C16.6633 16.8183 11.2505 18.6456 11.2505 22.2728V25H27.5V22.2728C27.5 18.6456 22.0871 16.8183 19.3752 16.8183Z" fill="white"/>
<path d="M19.3745 14.9998C21.9058 14.9998 23.9577 12.7613 23.9577 9.99991C23.9577 7.23854 21.9058 5 19.3745 5C16.8433 5 14.7913 7.23854 14.7913 9.99991C14.7913 12.7613 16.8433 14.9998 19.3745 14.9998Z" fill="white"/>
</g>
</svg>
