<svg width="55" height="30" viewBox="0 0 55 30" fill="none" xmlns="http://www.w3.org/2000/svg">
<path d="M10.2599 2.87718H7.7328L4.66365 5.76567V2.84447H2.68774V10.6882H4.66365V7.34387L7.79833 10.6877H10.2873L6.37217 6.52973L10.2599 2.87718Z" fill="#E94F26"/>
<mask id="mask0_5796_772" style="mask-type:luminance" maskUnits="userSpaceOnUse" x="0" y="0" width="55" height="30">
<path d="M0 0H55V30H0V0Z" fill="white"/>
</mask>
<g mask="url(#mask0_5796_772)">
<path d="M39.5417 7.44726L40.2872 4.37584H41.2387L41.9817 7.44726H39.5417ZM43.2714 4.15162C43.0534 3.21239 42.3155 2.87807 41.5463 2.87807H39.9801C39.2104 2.87807 38.4781 3.24661 38.2545 4.15162L36.6541 10.6917H38.7509L39.4869 7.67351L40.3336 8.90659H42.3372L42.7757 10.6917H44.8732L43.2714 4.15162Z" fill="#E94F26"/>
<path d="M16.5526 10.6934C17.4023 10.6934 18.0925 9.98561 18.0925 9.11415V4.45561C18.0925 3.58466 17.4023 2.88079 16.5526 2.88079H12.3385C11.4883 2.88079 10.7981 3.58466 10.7981 4.45561V9.11415C10.7981 9.98561 11.4883 10.6934 12.3385 10.6934H16.5526ZM16.1181 9.19289H12.783V4.37587H16.1181V9.19289Z" fill="#E94F26"/>
<path d="M19.7724 6.4045L21.7885 8.01489V4.38274H26.2084L27.465 2.87805L21.3109 2.88092C20.4605 2.88092 19.7709 3.58479 19.7709 4.45574L19.7724 6.4045Z" fill="#E94F26"/>
<path d="M27.0416 7.15616L25.0265 5.5461V9.17859H20.6044L19.348 10.6853L25.5007 10.6828C26.3529 10.6828 27.0426 9.97705 27.0426 9.1061L27.0416 7.15616Z" fill="#F0861B"/>
<path d="M52.6232 8.16397L52.6207 4.45561C52.6207 3.58466 51.9315 2.88079 51.0793 2.88079H47.2831C46.4304 2.88079 45.7422 3.58466 45.7422 4.45561V9.11415C45.7422 9.98561 46.4304 10.6934 47.2831 10.6934L53.2454 10.6918V9.18901H51.2237L52.6232 8.16397ZM50.6458 9.19289H47.726V4.37587H50.6458V9.19289Z" fill="#E94F26"/>
<path d="M28.7496 10.6934H34.1492C35.0004 10.6934 35.6901 9.98561 35.6901 9.11415V4.45561C35.6901 3.58466 35.0004 2.88079 34.1492 2.88079H28.7496V10.6934ZM33.7061 9.19289H30.7334V4.37587H33.7061V9.19289Z" fill="#E94F26"/>
<path d="M12.8575 21.4465V21.5952C12.8575 21.8221 12.8722 22.1173 12.9884 22.3979C13.2079 22.9255 13.7728 23.6406 15.2115 24.0533C15.1702 24.1399 14.8968 24.7066 14.8692 24.7649C14.0386 24.6174 13.137 24.0818 12.7604 23.7471C12.5057 23.5224 12.3819 23.3698 12.33 23.2985L12.2927 23.2471L12.2554 23.2985C12.2036 23.3684 12.0803 23.52 11.8246 23.7473C11.4475 24.0821 10.543 24.6192 9.71578 24.7649C9.68763 24.7071 9.41629 24.1387 9.37447 24.0533C10.8153 23.639 11.3776 22.9252 11.596 22.3979C11.7128 22.115 11.7274 21.8208 11.7274 21.5952V21.4465H12.8575Z" fill="#818081"/>
<path d="M15.3655 27.0972H9.44753V26.3441H15.3655V27.0972Z" fill="#818081"/>
<path d="M41.5493 27.076H44.1332V26.4317H41.5493V27.076ZM45.1155 25.1618V27.3611C45.1155 27.5341 45.0047 27.8259 44.5883 27.8259H41.0927C40.6783 27.8259 40.5682 27.5341 40.5682 27.3611V25.1618H41.5493V25.6856H44.1332V25.1618H45.1155Z" fill="#818081"/>
<path d="M42.2697 22.8361H40.399V23.6789H42.3159V22.8361H42.2697ZM45.1078 21.3179V24.5793H44.1358V23.1404H43.2976V23.644C43.2976 24.0844 42.9558 24.4295 42.5194 24.4295H40.1956C39.7597 24.4295 39.4188 24.0844 39.4188 23.644V21.4381H40.399V22.0902H42.3159V21.4381H43.2976V22.415H44.1358V21.3179H45.1078Z" fill="#818081"/>
<path d="M4.91429 24.8583V26.352H8.1825V27.0972H2.55936V26.352H3.90337V24.8583H4.91429Z" fill="#818081"/>
<path d="M7.22792 21.5156C7.57121 21.5156 7.7459 21.6803 7.7459 22.003C7.7459 22.003 7.7454 24.9839 7.7454 25.0771H6.65166C6.65166 24.9866 6.65002 23.3358 6.65002 23.3358C6.65002 23.3358 6.1462 23.9771 6.12002 24.0113H2.94944V23.2548H6.65166V22.2883H2.88605V21.5156H7.22792Z" fill="#818081"/>
<path d="M21.1291 25.5046C21.4723 25.5046 21.6465 25.6685 21.6465 25.9907C21.6465 25.9907 21.6455 27.7735 21.6455 27.8652H20.605V26.2528H16.9357V25.5046H21.1291Z" fill="#818081"/>
<path d="M21.5796 21.3145V22.3392H22.511V23.1198H21.5796V25.0161H20.5502V24.0022C20.5502 24.0022 20.0602 24.6267 20.0347 24.6604H16.822C16.3503 24.6604 16.2989 24.3404 16.2989 24.2021V21.4334H19.6702V22.2148H17.3353V23.9107H20.5502V21.3145H21.5796Z" fill="#818081"/>
<path d="M48.6866 25.4656V27.0773H52.5296V27.8257H48.4551C47.9109 27.8257 47.6455 27.6092 47.6455 27.1628C47.6455 27.1628 47.6465 25.7009 47.6465 25.4656H48.6866Z" fill="#818081"/>
<path d="M47.6143 22.8442C47.6143 23.337 48.0151 23.7383 48.5083 23.7383C48.9998 23.7383 49.3999 23.337 49.3999 22.8442C49.3999 22.3499 48.9998 21.9483 48.5083 21.9483C48.0151 21.9483 47.6143 22.3499 47.6143 22.8442ZM46.6352 22.8388C46.6352 21.9055 47.4753 21.1388 48.5073 21.1388C49.5384 21.1388 50.3761 21.9032 50.378 22.8432C50.3761 23.7835 49.5379 24.5474 48.5064 24.5474C47.4753 24.5474 46.6352 23.7803 46.6352 22.8388Z" fill="#818081"/>
<path d="M52.4209 21.3031C52.4209 21.3943 52.4214 24.8611 52.4214 24.9536H51.3985V21.3031H52.4209Z" fill="#818081"/>
<path d="M26.5216 26.4428C26.5216 26.9398 26.9796 27.3459 27.5414 27.3459C28.1043 27.3459 28.5604 26.9398 28.5604 26.4428C28.5604 25.9439 28.1043 25.5384 27.5414 25.5384C26.9796 25.5384 26.5216 25.9439 26.5216 26.4428ZM25.471 26.4428C25.471 25.5379 26.4003 24.7949 27.5419 24.7949C28.6832 24.7949 29.611 25.5359 29.614 26.4463C29.611 27.3577 28.6832 28.0977 27.5419 28.0977C26.4003 28.0977 25.471 27.356 25.471 26.4428Z" fill="#818081"/>
<path d="M29.61 21.3147V22.3394H30.4475V23.1199H29.61V24.5317H28.6262V21.3147H29.61Z" fill="#818081"/>
<path d="M26.4193 21.3368C26.4179 21.3845 26.4164 21.4465 26.4164 21.4465C26.4164 22.5334 27.1453 23.4401 28.2341 23.7247C28.1939 23.8075 27.9245 24.375 27.8949 24.4397C27.0863 24.2188 26.3393 23.7213 25.9412 23.1296C25.9412 23.1296 25.9241 23.1424 25.9065 23.1545C25.8903 23.1424 25.8722 23.1304 25.8722 23.1304C25.4739 23.7213 24.7274 24.2188 23.9189 24.4397C23.8877 24.375 23.62 23.8075 23.5802 23.7247C24.6685 23.4401 25.3974 22.5334 25.3974 21.4465C25.3974 21.4465 25.3954 21.3845 25.3939 21.3368H26.4193Z" fill="#818081"/>
<path d="M34.2343 26.4428C34.2343 26.9398 34.6923 27.3459 35.2552 27.3459C35.817 27.3459 36.2746 26.9398 36.2746 26.4428C36.2746 25.9439 35.817 25.5384 35.2552 25.5384C34.6923 25.5384 34.2343 25.9439 34.2343 26.4428ZM33.1842 26.4428C33.1842 25.5379 34.1134 24.7949 35.2552 24.7949C36.3954 24.7949 37.3242 25.5359 37.3271 26.4463C37.3242 27.3577 36.3954 28.0977 35.2552 28.0977C34.1134 28.0977 33.1842 27.356 33.1842 26.4428Z" fill="#818081"/>
<path d="M37.3227 21.3146V22.3393H38.1609V23.1199H37.3227V24.6199H36.3406V21.3146H37.3227Z" fill="#818081"/>
<path d="M35.4887 21.4347V22.1674H34.1296L34.1487 22.2298C34.3687 22.9296 34.9894 23.4801 35.81 23.7213C35.7723 23.8002 35.5003 24.3743 35.4696 24.4397C34.7261 24.2318 34.0234 23.7707 33.7142 23.2791L33.6745 23.2167L33.6352 23.2791C33.3271 23.7707 32.6249 24.2318 31.8799 24.4397C31.8491 24.3743 31.5768 23.8002 31.5401 23.7213C32.361 23.4801 32.9814 22.9296 33.2008 22.2298L33.2204 22.1674H31.8613V21.4347H35.4887Z" fill="#818081"/>
<path d="M3.00534 14.7708H3.5681V18.2833H5.45592V18.79H3.00534V14.7708Z" fill="#818081"/>
<path d="M6.34906 14.7708H6.91149V18.79H6.34906V14.7708Z" fill="#818081"/>
<path d="M9.97609 15.3751C9.68911 15.2605 9.53204 15.2084 9.23963 15.2084C8.92499 15.2084 8.55388 15.3235 8.55388 15.7436C8.55388 16.5156 10.2408 16.3371 10.2408 17.6615C10.2408 18.5195 9.59444 18.8589 8.80612 18.8589C8.53083 18.8589 8.26147 18.7785 8.00166 18.692L8.05863 18.1567C8.24994 18.2373 8.58714 18.3523 8.87461 18.3523C9.19419 18.3523 9.64433 18.1682 9.64433 17.6958C9.64433 16.7978 7.95786 17.0452 7.95786 15.7957C7.95786 15.0816 8.5086 14.7019 9.21691 14.7019C9.47557 14.7019 9.78526 14.7478 10.0546 14.8459L9.97609 15.3751Z" fill="#818081"/>
<path d="M12.0687 15.2776H10.8476V14.7708H13.8509V15.2776H12.63V18.79H12.0687V15.2776Z" fill="#818081"/>
<path d="M14.7222 14.7708H17.1662V15.2776H15.2845V16.452H17.0203V16.9588H15.2845V18.2833H17.1662V18.79H14.7222V14.7708Z" fill="#818081"/>
<path d="M18.3135 18.79H19.4713C20.7646 18.79 21.563 18.0927 21.563 16.7457C21.563 15.5077 20.6357 14.7708 19.4713 14.7708H18.3135V18.79ZM18.8753 15.2776H19.5332C20.3433 15.2776 20.9674 15.8301 20.9674 16.7688C20.9674 17.8053 20.4338 18.2833 19.4659 18.2833H18.8753V15.2776Z" fill="#818081"/>
<path d="M26.7531 15.4328C26.505 15.283 26.2291 15.2082 25.9426 15.2082C25.0375 15.2082 24.4354 15.8762 24.4354 16.7805C24.4354 17.7249 25.0989 18.3521 25.9144 18.3521C26.1958 18.3521 26.5724 18.2777 26.7698 18.1565L26.8025 18.7146C26.505 18.8417 26.139 18.8589 25.909 18.8589C24.6661 18.8589 23.8399 18.0417 23.8399 16.7633C23.8399 15.525 24.7163 14.7019 25.9144 14.7019C26.218 14.7019 26.516 14.7478 26.7969 14.8742L26.7531 15.4328Z" fill="#818081"/>
<path d="M27.5561 16.7805C27.5561 18.0009 28.2483 18.8589 29.4459 18.8589C30.6434 18.8589 31.3357 18.0009 31.3357 16.7805C31.3357 15.5882 30.6374 14.7017 29.4459 14.7017C28.2537 14.7017 27.5561 15.5882 27.5561 16.7805ZM28.1521 16.7805C28.1521 15.9623 28.5795 15.2023 29.4459 15.2082C30.3118 15.2023 30.7392 15.9623 30.7392 16.7805C30.7392 17.5805 30.3509 18.3521 29.4459 18.3521C28.5402 18.3521 28.1521 17.5805 28.1521 16.7805Z" fill="#818081"/>
<path d="M32.42 14.7708H33.3487L34.5796 18.1103L35.7888 14.7708H36.7161V18.79H36.1538V15.312H36.1426L34.8444 18.79H34.2926L32.9939 15.312H32.9824V18.79H32.42V14.7708Z" fill="#818081"/>
<path d="M38.0928 18.79H38.6556V17.1832H39.2065C39.9146 17.1832 40.5958 16.8666 40.5958 15.9742C40.5958 15.0584 39.9258 14.7708 39.1224 14.7708H38.0928V18.79ZM38.6556 15.2776H39.1339C39.4823 15.2776 39.9998 15.4615 39.9998 15.9683C39.9998 16.4979 39.5608 16.6767 39.2119 16.6767H38.6556V15.2776Z" fill="#818081"/>
<path d="M40.7711 18.79H41.362L41.7613 17.7766H43.6843L44.0829 18.79H44.6966L43.0374 14.7708H42.4473L40.7711 18.79ZM43.5045 17.3039H41.9409L42.7228 15.3121L43.5045 17.3039Z" fill="#818081"/>
<path d="M45.5398 14.7708H46.305L48.0368 18.0064H48.0478V14.7708H48.6101V18.79H47.8902L46.1137 15.4844H46.1022V18.79H45.5398V14.7708Z" fill="#818081"/>
<path d="M50.9832 17.1085L49.4477 14.7708H50.1058L51.2756 16.5729L52.4168 14.7708H53.0748L51.5455 17.1085V18.79H50.9832V17.1085Z" fill="#818081"/>
</g>
</svg>
