<svg width="21" height="20" viewBox="0 0 21 20" fill="none" xmlns="http://www.w3.org/2000/svg">
<path d="M10.5 8.33525C9.92917 8.33525 9.37583 8.36858 8.83333 8.41858V14.1681C8.83333 14.3891 8.74554 14.6011 8.58926 14.7573C8.43297 14.9136 8.22101 15.0014 8 15.0014C7.77899 15.0014 7.56702 14.9136 7.41074 14.7573C7.25446 14.6011 7.16667 14.3891 7.16667 14.1681L7.14833 6.76455L11.3225 5.03469C11.5768 4.9055 11.7936 4.71324 11.9523 4.47629C12.111 4.23935 12.2062 3.96565 12.2289 3.68138C12.2515 3.3971 12.2009 3.11177 12.0817 2.85268C11.9626 2.59359 11.7789 2.36941 11.5483 2.20158C11.5217 2.17742 7.91667 0.179248 7.91667 0.179248C7.66245 0.0511565 7.37965 -0.00969067 7.09524 0.0025078C6.81083 0.0147063 6.53429 0.0995437 6.29197 0.248932C6.04965 0.398321 5.84964 0.607281 5.711 0.855893C5.57237 1.1045 5.49972 1.38448 5.5 1.66913V9.10353C2.49333 10.0976 0.5 11.9691 0.5 14.1681C0.5 17.4387 4.8925 20.001 10.5 20.001C16.1075 20.001 20.5 17.4387 20.5 14.1681C20.5 10.8975 16.1075 8.33525 10.5 8.33525ZM13.8333 15.8346C13.5037 15.8346 13.1815 15.7369 12.9074 15.5538C12.6333 15.3707 12.4197 15.1104 12.2935 14.8059C12.1674 14.5014 12.1344 14.1663 12.1987 13.843C12.263 13.5197 12.4217 13.2228 12.6548 12.9897C12.8879 12.7566 13.1849 12.5979 13.5082 12.5336C13.8315 12.4693 14.1666 12.5023 14.4711 12.6284C14.7757 12.7546 15.036 12.9682 15.2191 13.2422C15.4023 13.5163 15.5 13.8385 15.5 14.1681C15.5 14.6101 15.3244 15.034 15.0118 15.3465C14.6993 15.6591 14.2754 15.8346 13.8333 15.8346Z" fill="white"/>
</svg>
