<svg width="20" height="18" viewBox="0 0 20 18" fill="none" xmlns="http://www.w3.org/2000/svg">
<path d="M16.5926 6.85091C15.4765 6.85091 14.479 7.40422 13.8568 8.24926C13.2345 7.40422 12.237 6.85091 11.121 6.85091C9.23455 6.85091 7.70369 8.42029 7.70369 10.3518C7.70369 11.0963 7.8222 11.7904 8.01974 12.4242C8.98763 15.5529 11.9901 17.4341 13.4716 17.9472C13.679 18.0176 14.0247 18.0176 14.2321 17.9472C15.7135 17.4341 18.716 15.5629 19.6839 12.4242C19.8913 11.7804 20 11.0963 20 10.3518C20.0098 8.42029 18.479 6.85091 16.5926 6.85091Z" fill="white"/>
<path d="M18.5185 5.27148C18.5185 5.50286 18.2913 5.65377 18.074 5.5934C16.7407 5.2413 15.279 5.53304 14.1728 6.33785C13.9555 6.49881 13.6592 6.49881 13.4518 6.33785C12.6716 5.75437 11.7234 5.43244 10.7259 5.43244C8.17776 5.43244 6.10369 7.55512 6.10369 10.1707C6.10369 13.0077 7.43702 15.1304 8.78022 16.5488C8.84936 16.6193 8.7901 16.74 8.70121 16.6997C6.00492 15.7641 0 11.881 0 5.27148C0 2.35406 2.30123 0 5.14567 0C6.83455 0 8.3259 0.824927 9.26417 2.10256C10.2123 0.824927 11.7037 0 13.3827 0C16.2172 0 18.5185 2.35406 18.5185 5.27148Z" fill="white"/>
</svg>
