<svg width="101" height="86" viewBox="0 0 101 86" fill="none" xmlns="http://www.w3.org/2000/svg">
<path d="M2.5 36.8862C2.5 17.9056 17.8868 2.5188 36.8674 2.5188C48.8414 2.5188 59.3871 8.64123 65.5421 17.9348L18.8451 66.1551C9.0331 60.1001 2.5 49.2548 2.5 36.8862Z" stroke="url(#paint0_linear_7691_2934)" stroke-width="4"/>
<path d="M44.8011 27.8342C44.5944 26.0893 43.7564 24.7347 42.287 23.7704C40.8176 22.8061 39.0153 22.324 36.8801 22.324C35.3189 22.324 33.9528 22.5765 32.7819 23.0816C31.6225 23.5868 30.7156 24.2813 30.0612 25.1652C29.4184 26.0491 29.0969 27.0536 29.0969 28.1786C29.0969 29.1199 29.3208 29.9292 29.7685 30.6065C30.2277 31.2724 30.8132 31.8291 31.5249 32.2768C32.2366 32.713 32.9828 33.0747 33.7634 33.3616C34.544 33.6372 35.2615 33.861 35.9158 34.0332L39.4975 34.9975C40.4158 35.2386 41.4375 35.5715 42.5625 35.9962C43.699 36.421 44.7838 37.0007 45.817 37.7354C46.8617 38.4586 47.7226 39.3884 48.3999 40.5249C49.0772 41.6614 49.4159 43.0562 49.4159 44.7092C49.4159 46.6149 48.9165 48.3368 47.9178 49.8751C46.9305 51.4133 45.4841 52.6359 43.5785 53.5428C41.6843 54.4497 39.3827 54.9031 36.6735 54.9031C34.148 54.9031 31.9611 54.4956 30.1129 53.6806C28.2762 52.8655 26.8297 51.729 25.7736 50.2711C24.729 48.8132 24.1378 47.12 24 45.1914H28.4082C28.523 46.523 28.9707 47.6251 29.7513 48.4975C30.5434 49.3585 31.5421 50.0013 32.7475 50.4261C33.9643 50.8394 35.273 51.046 36.6735 51.046C38.3036 51.046 39.7673 50.782 41.0644 50.2539C42.3616 49.7144 43.3891 48.9682 44.1467 48.0154C44.9044 47.0511 45.2832 45.9261 45.2832 44.6404C45.2832 43.4694 44.956 42.5166 44.3017 41.7819C43.6474 41.0472 42.7864 40.4503 41.7188 39.9911C40.6512 39.5319 39.4975 39.1302 38.2577 38.7858L33.9184 37.546C31.1633 36.7539 28.9822 35.6231 27.375 34.1537C25.7679 32.6843 24.9643 30.7615 24.9643 28.3852C24.9643 26.4107 25.4981 24.6888 26.5657 23.2194C27.6448 21.7385 29.0912 20.5906 30.905 19.7755C32.0548 19.2549 33.2888 18.8982 34.6072 18.7055C34.6072 17.7781 34.6072 15.5051 34.6072 15C34.8582 15 37.8903 15 38.648 15C38.648 16.0102 38.648 18.0306 38.648 18.6096C40.2687 18.7607 41.7457 19.1436 43.0791 19.7583C44.847 20.5619 46.2475 21.6639 47.2807 23.0644C48.3253 24.4649 48.8763 26.0549 48.9337 27.8342H44.8011Z" fill="url(#paint1_linear_7691_2934)"/>
<rect x="17.249" y="67.6057" width="71.7293" height="7.46193" transform="rotate(-45.8256 17.249 67.6057)" fill="white"/>
<path d="M97.4428 45.5979C96.8079 66.4872 79.359 82.9066 58.4696 82.2717C46.5984 81.9108 36.1707 76.1217 29.4936 67.3497L80.3723 12.7988C91.0028 19.7843 97.8574 31.9591 97.4428 45.5979Z" stroke="url(#paint2_linear_7691_2934)" stroke-width="4"/>
<path d="M72.0059 42.7788C75.4391 45.2122 77.4871 49.3839 77.0005 53.8644C76.2856 60.4483 70.3687 65.2061 63.7848 64.4912C59.8609 64.0651 56.5857 61.7913 54.731 58.6298" stroke="url(#paint3_linear_7691_2934)" stroke-width="4"/>
<rect x="43" y="62.5737" width="43.6774" height="3" rx="1.5" transform="rotate(-44.4261 43 62.5737)" fill="url(#paint4_linear_7691_2934)"/>
<defs>
<linearGradient id="paint0_linear_7691_2934" x1="34.2859" y1="0.518799" x2="34.2859" y2="68.6751" gradientUnits="userSpaceOnUse">
<stop stop-color="#00E0D6"/>
<stop offset="1" stop-color="#00C7E0"/>
</linearGradient>
<linearGradient id="paint1_linear_7691_2934" x1="36.7079" y1="15" x2="36.7079" y2="54.9031" gradientUnits="userSpaceOnUse">
<stop stop-color="#00E1D6"/>
<stop offset="1" stop-color="#00C1E2"/>
</linearGradient>
<linearGradient id="paint2_linear_7691_2934" x1="64.5922" y1="9.7581" x2="62.3237" y2="84.3897" gradientUnits="userSpaceOnUse">
<stop stop-color="#A1F2EE"/>
<stop offset="1" stop-color="#00C1E2"/>
</linearGradient>
<linearGradient id="paint3_linear_7691_2934" x1="67.3828" y1="42.2768" x2="64.9567" y2="64.6184" gradientUnits="userSpaceOnUse">
<stop stop-color="#01DED7"/>
<stop offset="1" stop-color="#00C1E2"/>
</linearGradient>
<linearGradient id="paint4_linear_7691_2934" x1="43" y1="64.0737" x2="86.6774" y2="64.0737" gradientUnits="userSpaceOnUse">
<stop stop-color="#00C1E2"/>
<stop offset="1" stop-color="#00E0D7"/>
</linearGradient>
</defs>
</svg>
