<svg width="106" height="98" viewBox="0 0 106 98" fill="none" xmlns="http://www.w3.org/2000/svg">
<path d="M61.4594 59.8463C45.6329 61.4519 38.1361 39.0219 4.19238 68.5926L9.71084 80.5666L15.2293 92.5406C17.3117 89.6946 25.1 84.7939 39.5938 87.9592C54.0876 91.1245 69.095 86.6403 74.787 84.0026L103.316 57.7639C106.024 55.0567 102.275 45.894 94.5701 51.3083L72.4015 66.7183C73.8842 63.1668 69.9766 58.9822 61.4594 59.8463Z" fill="#FFE5DD"/>
<path d="M42.9257 71.9244C43.2034 71.855 47.2988 71.6329 61.4594 71.2997C67.8199 71.2997 71.3828 69.1584 72.4015 66.7183M72.4015 66.7183C73.8842 63.1668 69.9766 58.9822 61.4594 59.8463C45.6329 61.4519 38.1361 39.0219 4.19238 68.5926L9.71084 80.5666L15.2293 92.5406C17.3117 89.6946 25.1 84.7939 39.5938 87.9592C54.0876 91.1245 69.095 86.6403 74.787 84.0026L103.316 57.7639C106.024 55.0567 102.275 45.894 94.5701 51.3083L72.4015 66.7183Z" stroke="black" stroke-width="2"/>
<path d="M22.518 21.3211L19.6025 57.5555C36.4703 46.7269 50.2144 60.2627 58.5441 59.9146C66.8776 59.1375 72.6917 60.5999 72.9129 66.3018L96.028 50.4753L93.3208 21.3211C92.7547 16.3167 90.3897 15.4707 84.5746 15.4903H31.4724C24.6004 15.4903 22.9344 18.4057 22.518 21.3211Z" fill="#9DE5F9" stroke="black" stroke-width="2"/>
<path d="M21.4766 35.69C53.1296 32.1499 30.0146 57.3473 67.4984 51.5165C75.8282 50.0588 74.1622 53.3907 79.7848 61.7205" stroke="black" stroke-width="2"/>
<path d="M94.9867 38.8135H85.6157C82.0907 38.9111 81.1484 37.8458 81.2426 34.0239V15.9067" stroke="black" stroke-width="2"/>
<path d="M70.7043 16.5316C70.7043 20.3781 68.8732 24.7165 65.9556 29.1684C63.4497 32.9921 60.2586 36.7261 57.1026 40.0705C54.1652 36.9192 50.822 33.2081 48.0691 29.3394C44.8051 24.7524 42.6348 20.2978 42.6348 16.5316C42.6348 8.7804 48.9183 2.49683 56.6695 2.49683C64.4207 2.49683 70.7043 8.7804 70.7043 16.5316Z" fill="#68DDAB" stroke="black" stroke-width="4"/>
<path d="M71.7043 16.5316C71.7043 20.6688 69.7475 25.2068 66.792 29.7165C64.0456 33.9072 60.505 37.9718 57.0963 41.5281C53.9939 38.2174 50.2776 34.1678 47.2543 29.9192C43.9694 25.3028 41.6348 20.6286 41.6348 16.5316C41.6348 8.22812 48.3661 1.49683 56.6695 1.49683C64.973 1.49683 71.7043 8.22812 71.7043 16.5316Z" fill="#25E090" stroke="black" stroke-width="2"/>
<circle cx="56.8777" cy="16.7397" r="6.1638" fill="#FFF4F4" stroke="black"/>
<rect x="5.43652" y="64.5613" width="33.7355" height="5.42641" transform="rotate(65.458 5.43652 64.5613)" fill="white"/>
</svg>
