<svg width="101" height="90" viewBox="0 0 101 90" fill="none" xmlns="http://www.w3.org/2000/svg">
<path d="M16.0874 4.39616L28.05 1.85864H40.375L49.4376 9.65244L63.2127 1.85864H74.6315L84.9628 4.39616L97.4691 17.4462L100.188 37.5651L84.9628 62.3965H16.0874L6.84359 48.4402L1.76855 33.9401L4.12482 17.4462L16.0874 4.39616Z" fill="#E9DCFE"/>
<path d="M33.6694 78.3468H5.03174C7.98937 68.7997 11.2345 64.7869 21.1631 61.1279L67.5634 65.1155L78.8009 63.6654L80.0697 66.203L63.7571 80.703H37.1132L33.6694 78.3468Z" fill="#74DEEF"/>
<path d="M33.1249 19.0776C20.0748 16.6126 15.2415 28.9256 14.4561 35.3902C16.2686 34.6652 8.11227 42.459 31.8562 27.2339C35.9146 33.759 42.6097 36.659 45.8125 36.659C46.7792 32.2485 46.175 21.5426 33.1249 19.0776Z" fill="#6C6F6E"/>
<path d="M74.9942 16.3179C62.1253 16.9026 57.8357 21.6755 57.0503 28.1402C59.5878 29.5902 58.8628 33.3964 68.2879 23.7901C72.3463 30.3152 83.2102 31.7652 86.413 31.7652C87.3796 27.3547 88.0442 18.7829 74.9942 16.3179Z" fill="#6C6F6E"/>
<path d="M51.7943 46.4465C38.9255 47.0313 37.5359 53.9382 36.7505 60.4029C39.288 61.8529 38.3818 63.1216 47.8068 53.5153C51.8653 60.0404 59.6479 59.4966 62.8506 59.4966C63.8173 55.0862 64.8444 48.9115 51.7943 46.4465Z" fill="#6C6F6E"/>
<path d="M16.4497 44.634C5.75593 48.8028 7.56844 57.5029 10.4685 62.3966C13.006 63.8466 10.8309 65.6592 14.456 62.3966C18.6247 62.3966 16.6908 61.3091 19.8935 61.3091C20.8602 56.8987 22.0685 58.5904 16.4497 44.634Z" fill="#6C6F6E"/>
<path d="M69.7373 57.6841L62.306 52.4279L60.131 48.0778L57.4122 44.2716L54.5122 43.0028V38.4715L58.4997 34.3027V30.6777L63.2123 29.409L68.6498 24.8777L69.1935 26.3277L74.6311 29.409L80.6124 31.584H87.1374V33.9402L88.7687 37.0215L90.7624 40.1028L88.7687 44.2716L85.1436 46.4466L81.1561 54.7841L69.7373 57.6841Z" fill="#FFE3DB" stroke="black"/>
<path d="M33.6693 56.5967H26.963L24.788 56.2342L21.8879 54.9655L18.8067 50.2529L17.1754 45.1779H15.3629L13.3691 43.9091L12.4629 39.9216L15.0004 37.0216L26.963 31.9466L31.6755 27.4153L42.1881 36.1153L45.8131 37.5653L48.7131 39.9216L47.8069 43.3654L45.8131 45.1779L42.1881 48.9842L38.0193 54.0592L33.6693 56.5967Z" fill="#FFE3DB" stroke="black"/>
<path d="M47.4438 78.3466L41.2813 74.7216C40.798 74.4799 39.7588 73.9241 39.4688 73.6341C39.1063 73.2716 38.7438 71.6403 38.3813 70.9153C38.0913 70.3353 36.5688 69.8278 35.8438 69.6466L34.0312 67.8341L34.9375 64.0278L42.1875 59.3153L45.0876 56.4152L46.9001 54.2402L49.4376 54.9652L53.7876 58.5903L63.0314 59.6778L65.2064 61.309L67.2002 64.3903V66.5653L65.2064 69.6466L63.0314 71.2778L61.2189 74.7216L58.6814 76.1716L55.2376 77.9841L47.4438 78.3466Z" fill="#FFE3DB" stroke="black"/>
<path d="M21.8872 62.0341V54.6028L27.506 56.959L33.1248 56.5965L37.2935 55.509V57.5028L36.3873 60.5841L35.8435 62.5778L34.756 65.4778L35.8435 68.7404L32.0373 68.0154L27.8685 67.4716L24.9685 65.4778L21.8872 62.0341Z" fill="#FFE3DB"/>
<path d="M63.9375 57.5028L64.8437 54.6028L67.0187 56.959L71.9125 58.0466L77.1688 56.5965L80.6126 55.509L80.0688 58.0466L78.2563 62.0341L76.2625 63.8466L74.6313 65.1153H72.6375L70.825 65.4778L69.1937 64.3903L66.1125 62.5778L63.9375 60.5841V57.5028Z" fill="#FFE3DB"/>
<path d="M21.8872 62.0341V54.6028L27.506 56.959L33.1248 56.5965L37.2935 55.509V57.5028L36.3873 60.5841L35.8435 62.5778L34.756 65.4778L35.8435 68.7404L32.0373 68.0154L27.8685 67.4716L24.9685 65.4778L21.8872 62.0341Z" stroke="black"/>
<path d="M63.9375 57.5028L64.8437 54.6028L67.0187 56.959L71.9125 58.0466L77.1688 56.5965L80.6126 55.509L80.0688 58.0466L78.2563 62.0341L76.2625 63.8466L74.6313 65.1153H72.6375L70.825 65.4778L69.1937 64.3903L66.1125 62.5778L63.9375 60.5841V57.5028Z" stroke="black"/>
<path d="M37.6567 80.1591L42.5505 77.0779L50.8881 79.2529L57.0506 77.0779L62.4881 81.2467L49.4381 88.678L37.6567 80.1591Z" fill="#FFE3DB" stroke="black"/>
<path d="M23.2629 0.729744C21.8612 1.11641 19.1545 2.13142 17.2212 3.09809C8.95612 7.20645 3.15609 14.6498 1.12607 23.6882C-0.565603 31.1799 1.27107 41.62 5.42777 48.8217C6.92611 51.2867 7.02278 51.8184 6.82944 54.6701C6.58777 58.1984 7.65111 61.1468 9.97113 63.6601L11.1311 64.9651L9.72946 66.4635C7.45778 68.8318 6.00777 71.5868 5.13776 74.9702C4.36443 78.2085 4.55776 79.0302 6.00777 78.7402C6.63611 78.6435 6.92611 78.0152 7.07111 76.6619C7.50611 72.2152 11.0345 67.0435 15.7228 64.0468C19.2512 61.7751 20.4112 61.5818 21.0879 63.0318C22.4412 65.9318 28.2896 69.1702 32.2046 69.1702C35.1046 69.1702 36.9896 70.0885 37.618 71.8768C37.908 72.7468 39.068 74.2452 40.1313 75.1635C41.7263 76.6619 41.9197 76.9519 41.1946 77.1935C40.228 77.4835 39.1646 78.0152 37.6663 78.9335C36.8446 79.4652 36.5063 79.3202 35.1046 77.9669C33.3163 76.2269 31.8663 75.9369 31.8663 77.2902C31.8663 79.1269 47.913 89.9536 50.6197 89.9536C51.973 89.9536 63.9114 81.8336 68.8898 77.5319C71.3065 75.4535 75.2699 72.0702 77.7349 69.9918C81.8432 66.5118 82.0849 66.1735 81.6015 65.1585C81.2632 64.5785 80.6832 63.8535 80.2965 63.5635C79.7165 63.1768 79.7165 62.8384 80.1515 61.9684C80.4899 61.3401 80.9732 61.0501 81.3115 61.2918C89.7699 66.2701 93.5883 70.6202 94.5066 76.3235C94.8933 78.6435 95.9566 79.9002 96.44 78.6435C96.9716 77.2902 96.1983 73.4235 94.9416 70.8135C93.83 68.5418 89.3349 63.7085 87.3049 62.5484C86.4832 62.1134 86.6283 61.7751 88.8999 58.7301C96.9233 48 100.5 39.3 100.5 30.3583C100.5 23.2049 98.2283 16.8732 93.6366 11.3631C89.0449 5.8531 82.2299 1.64808 76.0915 0.488075C71.7415 -0.333595 65.1681 0.198074 60.9631 1.64809C57.4831 2.90476 52.698 5.32144 51.103 6.72311C50.378 7.35146 49.9914 7.25478 47.7197 5.70811C40.3246 0.826416 30.8996 -1.10693 23.2629 0.729744ZM38.633 3.77476C41.678 4.74143 46.1247 7.06145 49.3147 9.33313C49.943 9.76814 50.523 9.5748 52.2147 8.41479C58.1597 4.35477 64.1531 2.37309 70.5332 2.32475C75.7048 2.32475 78.5082 3.04976 83.6316 5.70811C89.2866 8.60812 95.0383 15.4232 97.2133 21.8032C98.8083 26.3949 98.8083 34.6599 97.165 39.445C95.5216 44.23 93.3466 48.435 89.4316 54.2834C85.2749 60.5184 84.9366 60.8568 83.3416 59.9868C82.3266 59.4551 82.1332 58.9718 82.1332 56.9901C82.1332 55.1051 82.4232 54.2834 83.7766 52.5434C84.6949 51.335 85.7582 49.45 86.2416 48.2417C86.8216 46.6467 87.4016 46.0183 88.5616 45.5833C90.4466 44.9067 91.7999 42.78 91.7999 40.5566C91.7999 38.72 90.3499 36.11 88.9483 35.3366C88.0299 34.8533 87.9333 34.3699 87.9333 29.6333C87.9333 24.7516 87.8366 24.2682 86.5799 22.2382C82.3749 15.6165 72.5632 12.4265 67.8748 16.0998C67.0048 16.7765 65.7481 17.1632 64.2498 17.2115C61.6398 17.3082 59.6581 18.5165 57.6281 21.1265C56.2264 23.0115 56.0814 24.7516 56.7581 31.2283L57.0964 34.6116L55.5497 35.4333C54.0031 36.3033 52.6497 38.8166 52.6497 40.75C52.6497 42.635 54.4381 45.0033 56.0331 45.3417C57.4347 45.5833 58.4497 46.695 58.4497 47.9517C58.4497 48.3384 58.3047 48.3867 57.7731 47.9517C56.6614 47.0334 52.5047 45.97 49.8947 45.97C48.493 45.97 47.333 45.8733 47.333 45.7283C47.333 45.5833 47.768 45.0517 48.2997 44.52C49.9914 42.8283 49.4597 38.4783 47.3814 36.9316C46.753 36.4966 46.7047 36.255 47.2363 35.7716C47.9614 34.9983 47.9614 30.7933 47.188 28.7149C46.2697 26.2016 43.6113 22.8665 41.2913 21.2232C37.618 18.6132 35.0563 17.8398 29.9329 17.7432C25.5829 17.6948 25.1962 17.7915 22.2962 19.3382C17.1245 22.1415 14.0795 26.8299 13.6445 32.5816C13.5478 34.2733 13.0161 36.4 12.4361 37.415C11.5178 39.2033 11.4211 41.62 12.2428 44.2783C12.4361 45.0033 11.9528 45.8733 10.3578 47.565L8.18278 49.885L6.24944 45.68C3.44609 39.59 2.72108 36.4483 2.67275 30.2616C2.67275 26.3466 2.86608 24.2682 3.54275 22.2865C5.0411 17.8399 7.69945 13.4898 11.0345 10.1548C18.3328 2.80809 28.4346 0.488075 38.633 3.77476ZM78.7499 18.2748C83.5832 20.4015 85.9516 23.7365 85.9999 28.4249C85.9999 30.8899 85.9516 30.9866 84.6949 30.9866C79.8615 30.9383 72.9982 27.9416 69.9048 24.5582L68.1165 22.5282L67.2465 23.6399C64.1531 27.8449 62.0264 29.5366 59.9964 29.5366C59.3681 29.5366 58.9331 28.9566 58.4981 27.6516C57.2897 23.5432 60.6731 19.1932 65.0715 19.2415C66.7148 19.2415 67.6815 18.9999 68.4065 18.3232C70.6782 16.2448 74.2065 16.2448 78.7499 18.2748ZM37.3763 21.3199C40.228 22.6732 43.0797 25.3799 44.433 28.0382C45.448 30.0683 45.7863 35.0466 44.9647 35.5783C44.6747 35.7233 43.0313 35.1433 41.2913 34.3216C37.8596 32.7266 33.8479 29.0532 32.8329 26.6366C32.1563 24.9932 30.6579 24.7032 30.1746 26.1049C29.7879 27.3616 25.6312 31.1799 23.3595 32.3399C20.8945 33.5966 16.0128 35.0949 15.6262 34.7566C15.1912 34.2733 16.3995 29.0049 17.3662 27.1199C18.5745 24.7999 21.5229 22.0449 24.1329 20.8365C27.2262 19.3865 33.9446 19.6282 37.3763 21.3199ZM70.3398 27.8449C71.5965 28.8116 73.2398 29.9233 74.0132 30.3099C75.9465 31.3249 82.3749 32.9199 84.4532 32.9199H86.1449L85.8549 34.8533C85.6616 36.4966 85.7582 36.7866 86.4833 36.7866C89.2866 36.7866 90.6399 41.04 88.5616 43.1667C87.6916 44.0367 87.3532 44.085 86.7732 43.6017C85.8066 42.78 85.0332 43.3117 85.0332 44.81C85.0332 45.4867 84.5016 47.0817 83.8249 48.3867C81.2632 53.4134 75.8982 56.9417 71.4515 56.5067C66.9081 56.0717 61.5431 50.9967 59.6098 45.3417C58.8848 43.2633 58.7397 43.07 57.3381 43.215C56.1297 43.3117 55.6947 43.07 55.1631 41.9583C54.5831 40.7983 54.6314 40.4116 55.4047 38.8166C55.9364 37.705 56.7097 36.9316 57.4831 36.7866C58.5464 36.545 58.6914 36.2066 58.8364 33.9833C58.9814 31.5183 59.0297 31.4699 60.5281 31.4699C62.4614 31.4699 64.5398 30.2133 66.4248 27.9416C67.2465 27.0232 67.9231 26.2016 67.9715 26.2016C68.0681 26.1532 69.1315 26.9266 70.3398 27.8449ZM35.2496 33.0649C37.2313 34.7566 42.1613 37.27 43.418 37.27C43.9497 37.27 45.013 37.85 45.8347 38.5266C47.5264 39.9283 47.768 41.7167 46.5597 43.4567C45.9797 44.3267 45.6413 44.4233 44.9163 44.0367C44.0947 43.6017 43.853 43.795 43.2247 45.3417C42.7897 46.3567 41.388 48.2417 40.1313 49.595C38.8263 50.9 37.5213 52.4951 37.2313 53.0751C36.603 54.2834 33.9446 55.8301 31.5279 56.3617C30.5612 56.5551 28.9179 56.3617 27.2262 55.8784C22.6829 54.5734 19.1545 50.5134 17.8012 45.1C17.4145 43.4083 17.1245 43.07 16.4962 43.3117C14.7562 44.0367 14.2245 43.795 13.7895 41.9583C13.0645 39.1066 14.0312 37.705 17.6078 36.6416C24.7129 34.5149 28.2412 32.5333 30.0779 29.7782L31.0929 28.2316L32.3979 29.9716C33.0746 30.9383 34.3796 32.3399 35.2496 33.0649ZM16.3512 47.6617C16.6895 48.58 17.6562 50.4167 18.5262 51.7217C19.7345 53.4617 20.2179 54.7667 20.3629 56.7484L20.5562 59.3584L18.9128 59.9868C17.9462 60.3251 16.1095 61.2434 14.8045 62.0168C13.4511 62.7901 12.2428 63.2735 12.0978 63.0318C8.23112 57.8601 7.79611 55.4434 10.1161 51.48C11.3245 49.305 14.6112 45.97 15.4328 45.97C15.5778 45.97 16.0128 46.7434 16.3512 47.6617ZM56.5164 49.595C57.9664 50.32 59.9964 51.6734 61.0114 52.6401C62.5098 54.1384 62.7998 54.7184 62.7998 56.4101V58.4884L60.6731 58.7784C59.5131 58.9718 57.8214 58.9718 56.9031 58.7784C55.2114 58.3918 50.233 55.7817 50.233 55.2501C50.233 54.7184 47.8164 52.2534 47.333 52.2534C47.0914 52.2534 46.318 53.1234 45.6413 54.1384C44.6263 55.8301 38.8746 60.4701 37.908 60.4701C37.2796 60.4701 38.1013 56.2167 39.068 54.2834C39.938 52.6401 41.388 51.045 43.6113 49.4017C46.1247 47.4684 52.553 47.565 56.5164 49.595ZM48.8314 56.7967C49.363 57.4734 51.0064 58.5851 52.553 59.3584C54.9214 60.5184 55.8881 60.7118 59.2714 60.7118C62.8964 60.7118 63.2348 60.7601 62.9931 61.5818C62.7998 62.2101 63.0898 62.5484 64.2014 62.9351C65.9415 63.5635 66.5698 65.2551 65.7481 67.0435C65.3131 68.1068 64.9748 68.2035 63.5731 67.9618C61.9781 67.6235 61.9781 67.6718 61.6398 69.6535C60.9631 74.0035 54.9697 78.1602 49.9914 77.7735C45.1097 77.3869 40.4213 73.8102 39.1646 69.6052C38.633 67.8651 38.4396 67.6718 37.3763 67.9135C36.4096 68.1551 36.1196 68.0101 35.7329 66.9468C35.4429 66.2218 35.3463 65.3035 35.4913 64.8685C35.5879 64.4335 37.473 63.1285 39.648 61.9201C41.7747 60.7601 44.3363 58.8751 45.303 57.7634C46.2697 56.6517 47.2847 55.6851 47.5264 55.6851C47.7197 55.6367 48.348 56.1684 48.8314 56.7967ZM24.8095 57.1351C27.0329 58.4401 31.0929 58.8268 33.5579 57.9568L35.4913 57.2801V59.5034C35.4913 61.1468 35.2013 61.9684 34.3796 62.7901C33.5096 63.6601 33.2679 64.3368 33.4129 65.6418L33.6063 67.2851L31.6729 66.9951C28.7246 66.5118 26.0179 65.1585 24.2779 63.3701C22.8279 61.9201 22.6829 61.4368 22.6829 58.9234C22.6829 57.3768 22.7795 56.1201 22.8762 56.1201C23.0212 56.1201 23.8912 56.5551 24.8095 57.1351ZM67.8265 57.5218C69.8081 58.4401 70.7265 58.6334 73.2882 58.3918C74.9798 58.2951 76.9132 57.8118 77.5899 57.3284C78.2665 56.8934 78.8949 56.6034 78.9915 56.7001C79.0882 56.7967 78.9915 57.7634 78.7499 58.9234C77.7832 64.3851 71.6448 66.0285 66.9565 62.1134C64.9265 60.4218 64.7331 60.0834 64.7331 58.1501C64.7331 56.9901 64.8781 56.1201 65.1198 56.2167C65.3131 56.3134 66.5215 56.8934 67.8265 57.5218ZM79.1365 65.7868C79.0399 65.9801 75.9465 68.6868 72.2248 71.8285C68.5031 74.9702 64.9748 77.9669 64.3465 78.4985L63.2831 79.5136L61.1081 78.4502L58.9814 77.4352L63.5731 72.7952C66.6181 69.7018 68.1165 67.8168 68.1165 67.0918C68.1165 66.0285 68.2615 66.0285 71.4998 66.1735C74.2548 66.3668 75.1248 66.2218 76.4299 65.4001C77.5899 64.6268 78.1699 64.5301 78.6532 64.9168C78.9915 65.2068 79.1849 65.5935 79.1365 65.7868ZM50.4264 79.8519C51.828 79.8519 53.8097 79.5619 54.7764 79.1269C56.4681 78.4502 56.7097 78.4502 58.6914 79.4169C59.8998 79.9969 60.8664 80.6736 60.8664 80.8669C60.8664 81.3019 50.9097 88.0203 50.2814 88.0203C50.088 88.0203 48.203 86.9086 46.1247 85.5553C43.998 84.2019 41.533 82.6552 40.7113 82.1236C39.8413 81.5919 39.1163 80.9636 39.1163 80.7219C39.1163 80.4802 40.1313 79.8036 41.4363 79.2235C43.708 78.1119 43.708 78.1119 45.7863 78.9819C46.9464 79.4652 49.0247 79.8519 50.4264 79.8519Z" fill="black"/>
<path d="M65.6994 37.5115C65.361 37.9465 65.216 38.7682 65.4093 39.4932C65.8444 41.2332 67.826 40.9432 68.0194 39.1065C68.2127 37.4632 66.6177 36.3998 65.6994 37.5115Z" fill="black"/>
<path d="M76.3816 37.4633C75.4633 38.5749 75.8983 40.4116 77.0583 40.4116C77.8316 40.4116 78.0249 40.0733 78.0249 38.7683C78.0249 36.9316 77.2999 36.3516 76.3816 37.4633Z" fill="black"/>
<path d="M67.3919 46.4533C66.6669 47.565 69.9536 49.8367 72.2252 49.8367C74.7386 49.8367 77.5903 47.71 76.8169 46.4533C76.3336 45.68 76.4786 45.6316 73.4336 47.5167C72.6119 48.0483 72.1286 47.9517 70.3886 47.0333C68.0686 45.825 67.8269 45.7766 67.3919 46.4533Z" fill="black"/>
<path d="M23.1661 38.1885C22.8278 38.8652 22.9245 39.3485 23.5528 40.1702C24.2778 41.0402 24.4711 41.0885 25.2928 40.5085C25.9695 40.0252 26.1145 39.4935 25.8728 38.5752C25.4862 37.0285 23.9395 36.8352 23.1661 38.1885Z" fill="black"/>
<path d="M34.2827 37.995C33.606 38.8167 34.041 40.4601 35.0077 40.8467C36.071 41.2334 37.231 39.2517 36.651 38.14C36.071 37.0767 35.1043 37.0284 34.2827 37.995Z" fill="black"/>
<path d="M25.3416 46.9366C24.9066 47.6616 25.3899 48.1933 27.2266 49.0633C29.4499 50.1267 31.77 50.03 33.7033 48.87C36.4583 47.1783 35.0083 45.6316 32.1083 47.2266C30.5616 48.0483 30.3683 48.0483 28.7249 47.275C26.7433 46.3566 25.7766 46.26 25.3416 46.9366Z" fill="black"/>
<path d="M44.1913 63.1768C43.3213 64.0468 43.418 64.7718 44.5297 65.4485C46.2213 66.5118 47.7197 64.4335 46.2697 62.9835C45.4963 62.2102 45.158 62.2585 44.1913 63.1768Z" fill="black"/>
<path d="M53.6649 63.2735C53.0849 64.3852 53.8582 65.7869 55.0666 65.7869C56.1782 65.7869 56.8066 64.0469 56.0332 63.1285C55.2116 62.1618 54.2449 62.2102 53.6649 63.2735Z" fill="black"/>
<path d="M45.7377 70.4749C44.6261 71.5866 47.5744 73.0366 50.9094 73.0366C53.3745 73.0366 55.3561 71.7799 54.6311 70.6683C54.2445 70.0883 53.9545 70.0399 52.8911 70.5233C51.3444 71.2483 48.9278 71.2966 48.5411 70.6199C48.2028 70.0883 46.2211 69.9433 45.7377 70.4749Z" fill="black"/>
</svg>
