<svg fill="none" height="24" viewBox="0 0 24 24" width="24" xmlns="http://www.w3.org/2000/svg"><g fill="#292d32"><path d="m12 22.75h-3c-5.43 0-7.75-2.32-7.75-7.75v-6c0-5.43 2.32-7.75 7.75-7.75h6c5.43 0 7.75 2.32 7.75 7.75v3c0 .41-.34.75-.75.75s-.75-.34-.75-.75v-3c0-4.61-1.64-6.25-6.25-6.25h-6c-4.61 0-6.25 1.64-6.25 6.25v6c0 4.61 1.64 6.25 6.25 6.25h3c.41 0 .75.34.75.75s-.34.75-.75.75z"/><path d="m16.3692 22.77c-.01 0-.01 0-.02 0-1.01-.01-1.85-.63-2.15-1.6l-1.85-5.95c-.25-.82-.04-1.7.57-2.29.6-.59 1.47-.81 2.27-.56l5.96 1.85c.96.3 1.59 1.14 1.6 2.15.01 1-.6 1.85-1.56 2.17l-1.63.55c-.23.08-.41.25-.48.48l-.56 1.64c-.31.95-1.15 1.56-2.15 1.56zm-1.86-9c-.27 0-.45.15-.53.22-.21.21-.28.5-.19.79l1.85 5.95c.16.51.58.53.74.54.14 0 .57-.04.73-.53l.56-1.64c.22-.67.76-1.2 1.43-1.43l1.63-.55c.5-.16.53-.6.53-.73s-.04-.57-.54-.73l-5.96-1.85c-.1-.03-.18-.04-.25-.04z"/></g></svg>