  <svg width="16" height="16" viewBox="0 0 16 16" fill="none" xmlns="http://www.w3.org/2000/svg">
<path fill-rule="evenodd" clip-rule="evenodd" d="M3.53218 14.4499C3.82109 14.7202 4.31901 14.7408 4.63859 14.4942L12.4157 8.47946C12.4159 8.47932 12.4156 8.47961 12.4157 8.47946C12.5774 8.35485 12.667 8.17996 12.667 7.99999C12.667 7.82002 12.5779 7.64555 12.4163 7.52094C12.4165 7.52108 12.4161 7.5208 12.4163 7.52094L4.63894 1.50608C4.49115 1.39214 4.30193 1.33329 4.1116 1.33329C3.89717 1.33329 3.68433 1.4075 3.53192 1.55033C3.24919 1.81503 3.27092 2.22158 3.58385 2.46371L10.7424 7.99999L3.58392 13.5362C3.27091 13.7784 3.24921 14.1852 3.53218 14.4499Z" fill="#6EBC30"/>
<path d="M12.4157 8.47946C12.4159 8.47932 12.4156 8.47961 12.4157 8.47946ZM12.4157 8.47946C12.5774 8.35485 12.667 8.17996 12.667 7.99999C12.667 7.82002 12.5779 7.64555 12.4163 7.52094M12.4157 8.47946L4.63859 14.4942C4.31901 14.7408 3.82109 14.7202 3.53218 14.4499C3.24921 14.1852 3.27091 13.7784 3.58392 13.5362L10.7424 7.99999L3.58384 2.46371C3.27092 2.22158 3.24919 1.81503 3.53192 1.55033C3.68434 1.4075 3.89717 1.33329 4.1116 1.33329C4.30193 1.33329 4.49115 1.39214 4.63894 1.50608L12.4163 7.52094M12.4163 7.52094C12.4161 7.5208 12.4165 7.52108 12.4163 7.52094Z" stroke="#6EBC30" stroke-width="0.5"/>
</svg>
