<svg width="20" height="20" viewBox="0 0 20 20" fill="none" xmlns="http://www.w3.org/2000/svg">
<path fill-rule="evenodd" clip-rule="evenodd" d="M4.4148 18.5624C4.77594 18.9003 5.39833 18.926 5.79782 18.6178L15.5192 11.0994C15.5195 11.0992 15.519 11.0996 15.5192 11.0994C15.7213 10.9436 15.8333 10.725 15.8333 10.5C15.8333 10.2751 15.722 10.057 15.5199 9.90123C15.5201 9.90141 15.5197 9.90106 15.5199 9.90123L5.79824 2.38266C5.61351 2.24024 5.37699 2.16668 5.13908 2.16668C4.87103 2.16668 4.60499 2.25944 4.41447 2.43797C4.06107 2.76885 4.08822 3.27704 4.47938 3.57969L13.4276 10.5L4.47947 17.4203C4.08821 17.7231 4.06109 18.2316 4.4148 18.5624Z" fill="#0EC0CB"/>
<path d="M15.5192 11.0994C15.5195 11.0992 15.519 11.0996 15.5192 11.0994ZM15.5192 11.0994C15.7213 10.9436 15.8333 10.725 15.8333 10.5001C15.8333 10.2751 15.722 10.057 15.5199 9.90123M15.5192 11.0994L5.79782 18.6178C5.39833 18.926 4.77594 18.9003 4.4148 18.5624C4.06109 18.2316 4.08821 17.7231 4.47947 17.4203L13.4276 10.5L4.47938 3.57969C4.08823 3.27704 4.06107 2.76885 4.41447 2.43797C4.60499 2.25944 4.87103 2.16668 5.13908 2.16668C5.37698 2.16668 5.61351 2.24024 5.79824 2.38266L15.5199 9.90123M15.5199 9.90123C15.5197 9.90106 15.5201 9.90141 15.5199 9.90123Z" stroke="#0EC0CB" stroke-width="0.5"/>
</svg>
