<svg width="16" height="16" viewBox="0 0 16 16" fill="none" xmlns="http://www.w3.org/2000/svg">
<path fill-rule="evenodd" clip-rule="evenodd" d="M2.40451 3.12225C2.36011 3.44768 2.35902 3.88396 2.35902 4.53343L2.35902 13.2645L3.89748 12.7592L5.94876 13.4329L8.00004 12.7592L9.5385 13.2645L9.5385 3.85971C9.5385 3.29095 9.72924 2.76609 10.0511 2.34384L4.58124 2.34384C3.92208 2.34384 3.47931 2.34491 3.14903 2.38866C2.8335 2.43046 2.69846 2.5027 2.60935 2.5905C2.52025 2.67829 2.44693 2.81135 2.40451 3.12225ZM12.1026 2.34384C11.2529 2.34384 10.5641 3.02251 10.5641 3.85971V5.37558L13.5678 5.37558C13.5949 5.37558 13.619 5.37557 13.641 5.3755C13.6411 5.35388 13.6411 5.33009 13.6411 5.3034V3.85971C13.6411 3.02252 12.9523 2.34384 12.1026 2.34384ZM10.5641 6.38616L13.5843 6.38616C13.6839 6.38619 13.7919 6.38622 13.8847 6.37735C13.9907 6.36723 14.1297 6.34194 14.2667 6.25708C14.3755 6.18977 14.4674 6.09919 14.5357 5.99206C14.6218 5.85701 14.6475 5.72006 14.6578 5.61569C14.6668 5.52418 14.6667 5.41784 14.6667 5.3197L14.6667 3.85971C14.6667 2.46439 13.5187 1.33325 12.1026 1.33325L4.54569 1.33325C3.93134 1.33323 3.41905 1.33322 3.01236 1.38709C2.5831 1.44396 2.19555 1.56905 1.88411 1.87591C1.57268 2.18277 1.44573 2.56463 1.38802 2.98759C1.33334 3.38831 1.33335 3.89307 1.33337 4.4984L1.33338 14.6666L3.89748 13.8244L5.94876 14.4982L8.00004 13.8244L10.5641 14.6666V6.38616Z" fill="#FF7100"/>
<path fill-rule="evenodd" clip-rule="evenodd" d="M4.06842 4.53343C4.06842 4.25437 4.29801 4.02814 4.58124 4.02814L7.31628 4.02814C7.5995 4.02814 7.8291 4.25437 7.8291 4.53343C7.8291 4.8125 7.5995 5.03872 7.31628 5.03872L4.58124 5.03873C4.29801 5.03873 4.06842 4.8125 4.06842 4.53343Z" fill="#FF7100"/>
<path fill-rule="evenodd" clip-rule="evenodd" d="M5.77782 7.22832C5.77782 7.50739 5.54822 7.73361 5.265 7.73361H4.58124C4.29801 7.73361 4.06842 7.50739 4.06842 7.22832C4.06842 6.94926 4.29801 6.72303 4.58124 6.72303H5.265C5.54822 6.72303 5.77782 6.94926 5.77782 7.22832Z" fill="#FF7100"/>
<path fill-rule="evenodd" clip-rule="evenodd" d="M4.06842 9.92321C4.06842 9.64414 4.29801 9.41792 4.58124 9.41792H6.63252C6.91574 9.41792 7.14534 9.64414 7.14534 9.92321C7.14534 10.2023 6.91574 10.4285 6.63252 10.4285H4.58124C4.29801 10.4285 4.06842 10.2023 4.06842 9.92321Z" fill="#FF7100"/>
</svg>
