<svg width="24" height="24" viewBox="0 0 24 24" fill="none" xmlns="http://www.w3.org/2000/svg">
<path fill-rule="evenodd" clip-rule="evenodd" d="M3.6067 4.68349C3.5401 5.17164 3.53846 5.82606 3.53846 6.80027L3.53846 19.8968L5.84615 19.1389L8.92308 20.1495L12 19.1389L14.3077 19.8968L14.3077 5.78968C14.3077 4.93655 14.5938 4.14925 15.0766 3.51588L6.8718 3.51588C5.88307 3.51588 5.2189 3.51748 4.72348 3.58312C4.25019 3.64581 4.04762 3.75417 3.91397 3.88587C3.78031 4.01756 3.67034 4.21715 3.6067 4.68349ZM18.1538 3.51588C16.8793 3.51588 15.8461 4.53389 15.8461 5.78968V8.06349L20.3516 8.06349C20.3923 8.06349 20.4285 8.06348 20.4614 8.06337C20.4615 8.03095 20.4615 7.99525 20.4615 7.95522V5.78969C20.4615 4.5339 19.4283 3.51588 18.1538 3.51588ZM15.8461 9.57936L20.3764 9.57937C20.5258 9.57941 20.6877 9.57946 20.8271 9.56614C20.986 9.55096 21.1944 9.51303 21.4 9.38574C21.5631 9.28478 21.701 9.1489 21.8035 8.98821C21.9327 8.78564 21.9712 8.58022 21.9866 8.42366C22.0001 8.2864 22 8.12688 22 7.97968L22 5.78969C22 3.6967 20.278 2 18.1538 2L6.81847 2C5.89695 1.99997 5.12852 1.99995 4.51848 2.08076C3.87459 2.16606 3.29326 2.35369 2.82611 2.81398C2.35896 3.27427 2.16853 3.84707 2.08196 4.48151C1.99995 5.08258 1.99997 5.83973 2 6.74772L2 22L5.84615 20.7368L8.92308 21.7474L12 20.7368L15.8461 22L15.8461 9.57936Z" fill="white"/>
<path fill-rule="evenodd" clip-rule="evenodd" d="M6.10256 6.80027C6.10256 6.38168 6.44696 6.04234 6.87179 6.04234L10.9744 6.04234C11.3992 6.04234 11.7436 6.38168 11.7436 6.80027C11.7436 7.21887 11.3992 7.55821 10.9744 7.55821L6.87179 7.55821C6.44696 7.55821 6.10256 7.21887 6.10256 6.80027Z" fill="white"/>
<path fill-rule="evenodd" clip-rule="evenodd" d="M8.66666 10.8426C8.66666 11.2612 8.32227 11.6005 7.89743 11.6005H6.87179C6.44696 11.6005 6.10256 11.2612 6.10256 10.8426C6.10256 10.424 6.44696 10.0847 6.87179 10.0847H7.89743C8.32227 10.0847 8.66666 10.424 8.66666 10.8426Z" fill="white"/>
<path fill-rule="evenodd" clip-rule="evenodd" d="M6.10256 14.8849C6.10256 14.4663 6.44696 14.127 6.87179 14.127H9.94871C10.3735 14.127 10.7179 14.4663 10.7179 14.8849C10.7179 15.3035 10.3735 15.6429 9.94871 15.6429H6.87179C6.44696 15.6429 6.10256 15.3035 6.10256 14.8849Z" fill="white"/>
</svg>
