<svg width="16" height="16" viewBox="0 0 16 16" fill="none" xmlns="http://www.w3.org/2000/svg">
<path fill-rule="evenodd" clip-rule="evenodd" d="M2.40445 3.12225C2.36004 3.44768 2.35895 3.88396 2.35895 4.53343L2.35896 13.2645L3.89742 12.7592L5.9487 13.4329L7.99998 12.7592L9.53844 13.2645L9.53844 3.85971C9.53844 3.29095 9.72918 2.76609 10.0511 2.34384L4.58118 2.34384C3.92202 2.34384 3.47925 2.34491 3.14897 2.38866C2.83344 2.43046 2.6984 2.5027 2.60929 2.5905C2.52019 2.67829 2.44687 2.81135 2.40445 3.12225ZM12.1025 2.34384C11.2529 2.34384 10.5641 3.02251 10.5641 3.85971V5.37558L13.5677 5.37558C13.5948 5.37558 13.619 5.37557 13.6409 5.3755C13.641 5.35388 13.641 5.33009 13.641 5.3034V3.85971C13.641 3.02252 12.9522 2.34384 12.1025 2.34384ZM10.5641 6.38616L13.5843 6.38616C13.6839 6.38619 13.7918 6.38622 13.8847 6.37735C13.9906 6.36723 14.1296 6.34194 14.2667 6.25708C14.3754 6.18977 14.4673 6.09919 14.5356 5.99206C14.6218 5.85701 14.6474 5.72006 14.6577 5.61569C14.6667 5.52418 14.6667 5.41784 14.6666 5.3197L14.6666 3.85971C14.6666 2.46439 13.5187 1.33325 12.1025 1.33325L4.54563 1.33325C3.93128 1.33323 3.41899 1.33322 3.0123 1.38709C2.58304 1.44396 2.19549 1.56905 1.88405 1.87591C1.57262 2.18277 1.44567 2.56463 1.38795 2.98759C1.33328 3.38831 1.33329 3.89307 1.33331 4.4984L1.33331 14.6666L3.89742 13.8244L5.9487 14.4982L7.99998 13.8244L10.5641 14.6666V6.38616Z" fill="#6EBC30"/>
<path fill-rule="evenodd" clip-rule="evenodd" d="M4.06835 4.53343C4.06835 4.25437 4.29795 4.02814 4.58117 4.02814L7.31622 4.02814C7.59944 4.02814 7.82904 4.25437 7.82904 4.53343C7.82904 4.8125 7.59944 5.03872 7.31622 5.03872L4.58118 5.03873C4.29795 5.03873 4.06835 4.8125 4.06835 4.53343Z" fill="#6EBC30"/>
<path fill-rule="evenodd" clip-rule="evenodd" d="M5.77776 7.22832C5.77776 7.50739 5.54816 7.73361 5.26494 7.73361H4.58117C4.29795 7.73361 4.06835 7.50739 4.06835 7.22832C4.06835 6.94926 4.29795 6.72303 4.58117 6.72303H5.26494C5.54816 6.72303 5.77776 6.94926 5.77776 7.22832Z" fill="#6EBC30"/>
<path fill-rule="evenodd" clip-rule="evenodd" d="M4.06835 9.92321C4.06835 9.64414 4.29795 9.41792 4.58117 9.41792H6.63246C6.91568 9.41792 7.14528 9.64414 7.14528 9.92321C7.14528 10.2023 6.91568 10.4285 6.63246 10.4285H4.58118C4.29795 10.4285 4.06835 10.2023 4.06835 9.92321Z" fill="#6EBC30"/>
</svg>
