<svg width="58" height="58" viewBox="0 0 58 58" fill="none" xmlns="http://www.w3.org/2000/svg">
<path d="M0 58L7.05952 42.2636L15.6355 50.8949L0 58Z" fill="white"/>
<path d="M6.82438 42.5599L46.7367 2.38994L55.2603 10.9685L15.3479 51.1385L6.82438 42.5599Z" fill="#EDB72B"/>
<path d="M41.4998 7.66059L46.7367 2.38994L55.2603 10.9685L50.0233 16.2392L41.4998 7.66059Z" fill="#E25C5C"/>
<path d="M47.3141 3.95265L51.2414 0L58 6.80223L54.0727 10.7549L47.3141 3.95265Z" fill="#132D5C"/>
<path d="M0 58L2.99405 51.3261L6.63118 54.9867L0 58Z" fill="#152123"/>
<path d="M16.7271 46.3962C16.085 47.0424 15.0441 47.0424 14.4021 46.3962C13.7601 45.7501 13.7601 44.7024 14.4021 44.0563L23.6387 34.7601C24.2807 34.1139 25.3216 34.1139 25.9636 34.7601C26.6057 35.4062 26.6057 36.4539 25.9636 37.1L16.7271 46.3962Z" fill="#E25C5C"/>
</svg>
