<svg width="120" height="120" viewBox="0 0 120 120" fill="none" xmlns="http://www.w3.org/2000/svg">
<rect width="120" height="120" rx="60" fill="#EDEDF2"/>
<path d="M31 89L38.0595 73.2636L46.6355 81.8949L31 89Z" fill="white"/>
<path d="M37.8244 73.5599L77.7367 33.3899L86.2603 41.9685L46.3479 82.1385L37.8244 73.5599Z" fill="#EDB72B"/>
<path d="M72.4998 38.6606L77.7367 33.3899L86.2603 41.9685L81.0233 47.2392L72.4998 38.6606Z" fill="#E25C5C"/>
<path d="M78.3141 34.9526L82.2414 31L89 37.8022L85.0727 41.7549L78.3141 34.9526Z" fill="#2F312A"/>
<path d="M31 89L33.994 82.3261L37.6312 85.9867L31 89Z" fill="#152123"/>
<path d="M47.7271 77.3962C47.085 78.0424 46.0441 78.0424 45.4021 77.3962C44.7601 76.7501 44.7601 75.7024 45.4021 75.0563L54.6387 65.7601C55.2807 65.1139 56.3216 65.1139 56.9636 65.7601C57.6057 66.4062 57.6057 67.4539 56.9636 68.1L47.7271 77.3962Z" fill="#E25C5C"/>
</svg>
