<svg width="100" height="100" viewBox="0 0 100 100" fill="none" xmlns="http://www.w3.org/2000/svg">
<rect width="100" height="100" rx="50" fill="white"/>
<path d="M35 51L38.6515 42.8605L43.0873 47.325L35 51Z" fill="white"/>
<path d="M38.5299 43.0137L59.1742 22.2362L63.5829 26.6734L42.9386 47.4509L38.5299 43.0137Z" fill="#EDB72B"/>
<path d="M56.4654 24.9624L59.1742 22.2362L63.5829 26.6734L60.8741 29.3996L56.4654 24.9624Z" fill="#E25C5C"/>
<path d="M59.4728 23.0445L61.5042 21L65 24.5184L62.9686 26.5629L59.4728 23.0445Z" fill="#2F312A"/>
<path d="M35 51L36.5486 47.548L38.4299 49.4414L35 51Z" fill="#152123"/>
<path d="M43.6519 44.9981C43.3198 45.3323 42.7814 45.3323 42.4494 44.9981C42.1173 44.6638 42.1173 44.122 42.4494 43.7877L47.2269 38.9793C47.559 38.6451 48.0974 38.6451 48.4295 38.9793C48.7616 39.3136 48.7616 39.8554 48.4295 40.1897L43.6519 44.9981Z" fill="#E25C5C"/>
<path d="M34.8361 65.088H35.8321V73.02H34.8361V65.088ZM35.5201 68.376H37.4401V69.204H35.5201V68.376ZM31.8721 65.928H32.9281C32.9281 68.736 30.9601 70.788 27.8521 71.784L27.4201 70.968C30.1561 70.128 31.8721 68.448 31.8721 66.36V65.928ZM27.8641 65.928H32.3761V66.744H27.8641V65.928ZM29.0641 74.88H36.3121V75.696H29.0641V74.88ZM29.0641 72.216H30.0601V75.204H29.0641V72.216ZM46.2591 65.088H47.2551V73.164H46.2591V65.088ZM38.6511 65.964H44.3631V66.78H38.6511V65.964ZM38.4711 71.532L38.3631 70.68C40.1391 70.68 42.6711 70.656 44.6991 70.416L44.7591 71.16C42.6711 71.496 40.2351 71.532 38.4711 71.532ZM39.7311 66.66H40.6911V70.824H39.7311V66.66ZM42.3231 66.66H43.2831V70.824H42.3231V66.66ZM44.4591 67.14H46.7871V67.956H44.4591V67.14ZM44.4591 69.216H46.7871V70.032H44.4591V69.216ZM40.3191 74.88H47.5431V75.696H40.3191V74.88ZM40.3191 72.504H41.3151V75.396H40.3191V72.504ZM59.7418 65.088H60.7498V73.164H59.7418V65.088ZM56.4418 65.928H57.4978C57.4978 68.736 55.4938 70.86 52.4218 71.868L51.9898 71.064C54.6658 70.188 56.4418 68.484 56.4418 66.348V65.928ZM52.5298 65.928H57.0538V66.756H52.5298V65.928ZM56.9938 67.32H59.8978V68.136H56.9938V67.32ZM56.8858 69.756H59.8618V70.572H56.8858V69.756ZM53.8858 74.88H61.0138V75.696H53.8858V74.88ZM53.8858 72.384H54.8818V75.384H53.8858V72.384ZM65.5009 66.192H66.3169V67.068C66.3169 69.048 65.0929 70.74 63.2809 71.412L62.7649 70.62C64.3849 70.044 65.5009 68.604 65.5009 67.068V66.192ZM65.6929 66.192H66.4969V67.068C66.4969 68.46 67.5529 69.816 69.1249 70.368L68.6209 71.16C66.8569 70.512 65.6929 68.88 65.6929 67.068V66.192ZM68.5369 67.908H70.9489V68.736H68.5369V67.908ZM63.0769 65.832H68.8729V66.636H63.0769V65.832ZM64.4209 72.168H71.6569V75.936H70.6609V72.984H64.4209V72.168ZM70.6609 65.088H71.6569V71.58H70.6609V65.088Z" fill="#152123"/>
</svg>
