<svg width="25" height="24" viewBox="0 0 25 24" fill="none" xmlns="http://www.w3.org/2000/svg">
<path d="M12.1867 2.03545C11.8916 2.14253 11.6384 2.4011 11.547 2.69362C11.5026 2.83204 11.5026 3.15329 11.5444 3.25254C11.5679 3.30217 11.3773 3.46671 10.923 3.79057C9.95953 4.47747 8.82898 4.98938 7.60444 5.29496C6.97781 5.45167 6.17102 5.57181 5.74543 5.57181C5.62272 5.57181 5.52872 5.58226 5.52872 5.59793C5.52872 5.63972 6.1658 6.0994 6.5235 6.31356C6.88903 6.53295 7.30679 6.73145 7.62794 6.83592C8.09269 6.98741 7.87598 6.98218 12.5 6.98218C17.2076 6.98218 16.9099 6.99263 17.4426 6.8098C17.7846 6.69227 18.2076 6.48594 18.5809 6.25349C18.8969 6.055 19.4713 5.6345 19.4713 5.60054C19.4713 5.58749 19.393 5.57704 19.2963 5.57443C18.6384 5.55876 17.6984 5.38899 16.8995 5.14087C15.9648 4.85096 15.1057 4.44352 14.3016 3.91071C13.8003 3.5764 13.4504 3.29433 13.4634 3.23165C13.4687 3.20553 13.4765 3.07494 13.4765 2.94696C13.4791 2.73541 13.4713 2.69623 13.4008 2.5578C13.3016 2.35931 13.1266 2.18432 12.9282 2.08768C12.8003 2.02239 12.735 2.00933 12.5392 2.00149C12.3721 1.99627 12.2702 2.0041 12.1867 2.03545Z" fill="white"/>
<path d="M8.5 8.76343L8.49217 9.52868L8.0483 9.67756C7.22063 9.95179 6.06136 10.2286 4.8577 10.4324C4.6671 10.4637 4.51044 10.4977 4.51044 10.5081C4.51044 10.5473 4.83681 10.9025 5.01175 11.0566C5.51306 11.4928 6.13969 11.8036 6.80026 11.9368C7.01697 11.9812 7.33551 11.9838 12.5 11.9838C17.6645 11.9838 17.983 11.9812 18.1997 11.9368C18.8681 11.8009 19.4896 11.4928 20.0013 11.0435C20.1867 10.8816 20.4896 10.5473 20.4896 10.5055C20.4896 10.4977 20.3642 10.4689 20.2102 10.4454C19.1084 10.2652 17.7846 9.95441 16.9648 9.68017L16.5078 9.52868L16.5 8.76343L16.4948 8.00078H14.5104V8.99327H10.4896V8.00078H8.50522L8.5 8.76343Z" fill="white"/>
<path d="M6.49478 14.6635L6.29373 14.7549C5.26501 15.2302 4.04047 15.4966 2.90209 15.4966C2.68016 15.4966 2.5 15.5045 2.5 15.5123C2.5 15.5541 2.7846 15.8806 2.96475 16.0477C3.46345 16.5074 4.0953 16.813 4.83681 16.954C5.05352 16.9932 5.62794 16.9984 12.3564 17.001C16.4687 17.0036 19.748 16.9958 19.889 16.9827C20.7037 16.907 21.4634 16.5753 22.0352 16.0477C22.2154 15.8806 22.5 15.5541 22.5 15.5123C22.5 15.5045 22.3277 15.4966 22.1162 15.4966C20.936 15.4966 19.7689 15.2433 18.7089 14.7549L18.5052 14.6635V12.9893L17.5078 12.9945L16.5078 13.0024L16.5 13.5038L16.4948 14.0079H8.50522L8.5 13.5038L8.49217 13.0024L7.49478 12.9945L6.49478 12.9893V14.6635Z" fill="white"/>
<path d="M4.48433 22H20.5157V18.004H18.5052V20.015H14.5104V18.004H10.4896V20.015H6.49478V18.004H4.48433V22Z" fill="white"/>
</svg>
