<svg width="30" height="30" viewBox="0 0 30 30" fill="none" xmlns="http://www.w3.org/2000/svg">
<path d="M15 27.5C21.8383 27.5 27.5 21.8261 27.5 15C27.5 8.16177 21.8261 2.5 14.9878 2.5C8.16177 2.5 2.5 8.16177 2.5 15C2.5 21.8261 8.17403 27.5 15 27.5Z" fill="#152123"/>
<path d="M8.75 15.0191C8.75 14.3539 9.21059 13.8933 9.87589 13.8933H13.8805V9.88868C13.8805 9.22338 14.3283 8.75 14.9808 8.75C15.6461 8.75 16.1067 9.22338 16.1067 9.88868V13.8933H20.1241C20.7766 13.8933 21.25 14.3539 21.25 15.0191C21.25 15.6717 20.7766 16.1066 20.1241 16.1066H16.1067V20.1241C16.1067 20.7894 15.6461 21.25 14.9808 21.25C14.3283 21.25 13.8805 20.7766 13.8805 20.1241V16.1066H9.87589C9.21059 16.1066 8.75 15.6717 8.75 15.0191Z" fill="white"/>
</svg>
