<svg width="30" height="30" viewBox="0 0 30 31" fill="none" xmlns="http://www.w3.org/2000/svg">
<path d="M15 28C21.8383 28 27.5 22.3261 27.5 15.5C27.5 8.66177 21.8261 3 14.9878 3C8.16177 3 2.5 8.66177 2.5 15.5C2.5 22.3261 8.17403 28 15 28Z" fill="#0EC0CB"/>
<path d="M8.75 15.5191C8.75 14.8539 9.21059 14.3933 9.87589 14.3933H13.8805V10.3887C13.8805 9.72338 14.3283 9.25 14.9808 9.25C15.6461 9.25 16.1067 9.72338 16.1067 10.3887V14.3933H20.1241C20.7766 14.3933 21.25 14.8539 21.25 15.5191C21.25 16.1717 20.7766 16.6066 20.1241 16.6066H16.1067V20.6241C16.1067 21.2894 15.6461 21.75 14.9808 21.75C14.3283 21.75 13.8805 21.2766 13.8805 20.6241V16.6066H9.87589C9.21059 16.6066 8.75 16.1717 8.75 15.5191Z" fill="white"/>
</svg>
