<svg width="16" height="16" viewBox="0 0 16 16" fill="none" xmlns="http://www.w3.org/2000/svg">
<path d="M14.9848 1.02386C14.0998 0.138829 12.8503 0 11.3666 0H4.60737C3.14967 0 1.90022 0.138829 1.01518 1.02386C0.130151 1.90889 0 3.14967 0 4.60737V11.3666C0 12.8503 0.130151 14.0911 1.01518 14.9761C1.90022 15.8612 3.14967 16 4.62472 16H11.3666C12.8503 16 14.0998 15.8612 14.9848 14.9761C15.8698 14.0911 16 12.8503 16 11.3666V4.62472C16 3.141 15.8698 1.90889 14.9848 1.02386Z" fill="black"/>
<path d="M7.80912 9.85682C7.34055 9.85682 7.08893 9.61389 7.08893 9.14535C7.08893 9.11063 7.08893 9.06724 7.08893 9.03251C7.08893 8.14749 7.56619 7.67895 8.20821 7.22776C8.98913 6.68112 9.37088 6.38611 9.37088 5.77873C9.37088 5.10194 8.83297 4.64207 8.02599 4.64207C7.43602 4.64207 6.96746 4.93709 6.64641 5.45769L6.49023 5.67461C6.32537 5.88285 6.13449 6.03036 5.8308 6.03036C5.52711 6.03036 5.20607 5.81344 5.20607 5.41431C5.20607 5.25812 5.24077 5.11062 5.28416 4.97179C5.53578 4.1475 6.54229 3.42733 8.08678 3.42733C9.61389 3.42733 10.9327 4.21691 10.9327 5.70932C10.9327 6.78524 10.308 7.30585 9.44034 7.8785C8.82431 8.28632 8.52925 8.60736 8.52925 9.11063C8.52925 9.13661 8.52925 9.18 8.52925 9.21473C8.52925 9.5705 8.26026 9.85682 7.80912 9.85682ZM7.78306 12.5206C7.27114 12.5206 6.81127 12.1041 6.81127 11.5921C6.81127 11.0802 7.26246 10.6551 7.78306 10.6551C8.31238 10.6551 8.75486 11.0715 8.75486 11.5921C8.75486 12.1128 8.30365 12.5206 7.78306 12.5206Z" fill="white"/>
</svg>
