<svg width="30" height="30" viewBox="0 0 30 30" fill="none" xmlns="http://www.w3.org/2000/svg">
<g opacity="0.4">
<path fill-rule="evenodd" clip-rule="evenodd" d="M7.92886 1.25C7.3279 1.25 6.84073 1.71484 6.84073 2.28825V4.36858C6.84073 4.94199 7.3279 5.40683 7.92886 5.40683H8.83309V3.22273H21.2408V5.40683H22.145C22.746 5.40683 23.2331 4.94199 23.2331 4.36858V2.28825C23.2331 1.71484 22.746 1.25 22.145 1.25H7.92886ZM21.2395 3.46022H8.8344V8.66954L15.0369 11.7641L21.2395 8.66954V3.46022ZM23.75 20.4011C23.75 25.0121 19.8325 28.75 15 28.75C10.1675 28.75 6.25 25.0121 6.25 20.4011C6.25 15.7901 10.1675 12.0522 15 12.0522C19.8325 12.0522 23.75 15.7901 23.75 20.4011ZM15 26.9182C18.7722 26.9182 21.8302 24.0004 21.8302 20.4011C21.8302 16.8018 18.7722 13.884 15 13.884C11.2278 13.884 8.16983 16.8018 8.16983 20.4011C8.16983 24.0004 11.2278 26.9182 15 26.9182ZM20.7166 20.448C20.7166 23.4118 18.1986 25.8144 15.0924 25.8144C11.9863 25.8144 9.46825 23.4118 9.46825 20.448C9.46825 17.4842 11.9863 15.0816 15.0924 15.0816C18.1986 15.0816 20.7166 17.4842 20.7166 20.448ZM16.4184 18.7028L15.0924 16.1287L13.7664 18.7028L11.1143 19.0246L12.9398 21.0067L12.4404 23.8511L15.0924 22.564L17.7445 23.8511L17.2494 21.0067L19.0705 19.0246L16.4184 18.7028Z" fill="white"/>
</g>
</svg>
