 <svg width="14" height="18" viewBox="0 0 14 18" fill="none" xmlns="http://www.w3.org/2000/svg">
            <path fill-rule="evenodd" clip-rule="evenodd"
              d="M1.41449 17.0625C1.77563 17.4003 2.39803 17.4261 2.79751 17.1178L12.5189 9.59942C12.5192 9.59924 12.5187 9.5996 12.5189 9.59942C12.721 9.44366 12.833 9.22504 12.833 9.00008C12.833 8.77511 12.7217 8.55703 12.5196 8.40126C12.5198 8.40144 12.5194 8.40109 12.5196 8.40126L2.79794 0.88269C2.61321 0.74027 2.37668 0.666707 2.13877 0.666707C1.87073 0.666707 1.60469 0.759469 1.41417 0.938004C1.06076 1.26888 1.08792 1.77707 1.47907 2.07973L10.4272 9.00008L1.47917 15.9204C1.08791 16.2231 1.06079 16.7316 1.41449 17.0625Z"
              fill="#0EC0CB" />
            <path
              d="M12.5189 9.59942C12.5192 9.59924 12.5187 9.5996 12.5189 9.59942ZM12.5189 9.59942C12.721 9.44366 12.833 9.22504 12.833 9.00008C12.833 8.77511 12.7217 8.55703 12.5196 8.40126M12.5189 9.59942L2.79751 17.1178C2.39803 17.4261 1.77563 17.4003 1.41449 17.0625C1.06079 16.7316 1.08791 16.2231 1.47917 15.9204L10.4272 9.00008L1.47907 2.07973C1.08792 1.77707 1.06076 1.26888 1.41417 0.938004C1.60469 0.75947 1.87073 0.666707 2.13877 0.666707C2.37668 0.666707 2.61321 0.740269 2.79794 0.882689L12.5196 8.40126M12.5196 8.40126C12.5194 8.40109 12.5198 8.40144 12.5196 8.40126Z"
              stroke="#0EC0CB" stroke-width="0.5" />
          </svg>