<svg width="30" height="30" viewBox="0 0 30 30" fill="none" xmlns="http://www.w3.org/2000/svg">
<g opacity="0.5">
<path d="M22.7 6.2H21.6V5.1C21.6 4.44 21.16 4 20.5 4C19.84 4 19.4 4.44 19.4 5.1V6.2H10.6V5.1C10.6 4.44 10.16 4 9.5 4C8.84 4 8.4 4.44 8.4 5.1V6.2H7.3C5.43 6.2 4 7.63 4 9.5V10.6H26V9.5C26 7.63 24.57 6.2 22.7 6.2ZM4 22.7C4 24.57 5.43 26 7.3 26H22.7C24.57 26 26 24.57 26 22.7V12.8H4V22.7ZM20.5 15C21.16 15 21.6 15.44 21.6 16.1C21.6 16.76 21.16 17.2 20.5 17.2C19.84 17.2 19.4 16.76 19.4 16.1C19.4 15.44 19.84 15 20.5 15ZM20.5 19.4C21.16 19.4 21.6 19.84 21.6 20.5C21.6 21.16 21.16 21.6 20.5 21.6C19.84 21.6 19.4 21.16 19.4 20.5C19.4 19.84 19.84 19.4 20.5 19.4ZM15 15C15.66 15 16.1 15.44 16.1 16.1C16.1 16.76 15.66 17.2 15 17.2C14.34 17.2 13.9 16.76 13.9 16.1C13.9 15.44 14.34 15 15 15ZM15 19.4C15.66 19.4 16.1 19.84 16.1 20.5C16.1 21.16 15.66 21.6 15 21.6C14.34 21.6 13.9 21.16 13.9 20.5C13.9 19.84 14.34 19.4 15 19.4ZM9.5 15C10.16 15 10.6 15.44 10.6 16.1C10.6 16.76 10.16 17.2 9.5 17.2C8.84 17.2 8.4 16.76 8.4 16.1C8.4 15.44 8.84 15 9.5 15ZM9.5 19.4C10.16 19.4 10.6 19.84 10.6 20.5C10.6 21.16 10.16 21.6 9.5 21.6C8.84 21.6 8.4 21.16 8.4 20.5C8.4 19.84 8.84 19.4 9.5 19.4Z" fill="white"/>
</g>
</svg>
