<svg width="26" height="26" viewBox="0 0 26 26" fill="none" xmlns="http://www.w3.org/2000/svg">
<path d="M19.9531 25.4999C19.7502 25.4999 19.5504 25.4481 19.3709 25.3489L13 21.8367L6.62915 25.3489C6.42274 25.4628 6.19006 25.5138 5.95742 25.4963C5.72478 25.4787 5.50147 25.3933 5.31274 25.2496C5.124 25.1059 4.97738 24.9097 4.88945 24.6832C4.80153 24.4567 4.7758 24.2089 4.81519 23.9678L6.03223 16.5288L0.877226 11.2605C0.710253 11.0898 0.592172 10.8735 0.53634 10.6361C0.480507 10.3987 0.489152 10.1497 0.561296 9.91713C0.633441 9.6846 0.766205 9.47788 0.944571 9.32035C1.12294 9.16282 1.33979 9.06078 1.57059 9.02575L8.69339 7.94037L11.8794 1.17202C11.9942 0.967387 12.158 0.79774 12.3546 0.679872C12.5511 0.562003 12.7736 0.5 13.0001 0.5C13.2265 0.5 13.449 0.562003 13.6455 0.679872C13.8421 0.79774 14.0059 0.967387 14.1207 1.17202L17.3067 7.94037L24.4295 9.02575C24.6603 9.06078 24.8772 9.16282 25.0555 9.32035C25.2339 9.47788 25.3667 9.6846 25.4388 9.91713C25.511 10.1497 25.5196 10.3987 25.4638 10.6361C25.4079 10.8735 25.2899 11.0898 25.1229 11.2605L19.9679 16.5288L21.1849 23.9678C21.2156 24.1559 21.2068 24.3488 21.1591 24.5329C21.1113 24.717 21.0258 24.888 20.9085 25.0339C20.7912 25.1798 20.645 25.2971 20.48 25.3776C20.315 25.4581 20.1352 25.4999 19.9532 25.5L19.9531 25.4999Z" fill="white"/>
</svg>
