<svg width="30" height="30" viewBox="0 0 30 30" fill="none" xmlns="http://www.w3.org/2000/svg">
<g opacity="0.5">
<path d="M21.9531 27.4999C21.7502 27.4999 21.5504 27.4481 21.3709 27.3489L15 23.8367L8.62915 27.3489C8.42274 27.4628 8.19006 27.5138 7.95742 27.4963C7.72478 27.4787 7.50147 27.3933 7.31274 27.2496C7.124 27.1059 6.97738 26.9097 6.88945 26.6832C6.80153 26.4567 6.7758 26.2089 6.81519 25.9678L8.03223 18.5288L2.87723 13.2605C2.71025 13.0898 2.59217 12.8735 2.53634 12.6361C2.48051 12.3987 2.48915 12.1497 2.5613 11.9171C2.63344 11.6846 2.76621 11.4779 2.94457 11.3204C3.12294 11.1628 3.33979 11.0608 3.57059 11.0258L10.6934 9.94037L13.8794 3.17202C13.9942 2.96739 14.158 2.79774 14.3546 2.67987C14.5511 2.562 14.7736 2.5 15.0001 2.5C15.2265 2.5 15.449 2.562 15.6455 2.67987C15.8421 2.79774 16.0059 2.96739 16.1207 3.17202L19.3067 9.94037L26.4295 11.0258C26.6603 11.0608 26.8772 11.1628 27.0555 11.3204C27.2339 11.4779 27.3667 11.6846 27.4388 11.9171C27.511 12.1497 27.5196 12.3987 27.4638 12.6361C27.4079 12.8735 27.2899 13.0898 27.1229 13.2605L21.9679 18.5288L23.1849 25.9678C23.2156 26.1559 23.2068 26.3488 23.1591 26.5329C23.1113 26.717 23.0258 26.888 22.9085 27.0339C22.7912 27.1798 22.645 27.2971 22.48 27.3776C22.315 27.4581 22.1352 27.4999 21.9532 27.5L21.9531 27.4999Z" fill="white"/>
</g>
</svg>
