<svg width="12" height="12" viewBox="0 0 12 12" fill="none" xmlns="http://www.w3.org/2000/svg">
<path fill-rule="evenodd" clip-rule="evenodd" d="M6 1.75C3.6565 1.75 1.75 3.6565 1.75 6C1.75 8.3435 3.6565 10.25 6 10.25C8.3435 10.25 10.25 8.3435 10.25 6C10.25 3.6565 8.3435 1.75 6 1.75ZM6 11C3.243 11 1 8.757 1 6C1 3.243 3.243 1 6 1C8.757 1 11 3.243 11 6C11 8.757 8.757 11 6 11Z" fill="#E25C5C"/>
<path fill-rule="evenodd" clip-rule="evenodd" d="M7.71605 7.84623C7.65055 7.84623 7.58455 7.82923 7.52406 7.79373L5.63905 6.66923C5.52605 6.60123 5.45605 6.47873 5.45605 6.34673V3.92273C5.45605 3.71573 5.62405 3.54773 5.83105 3.54773C6.03855 3.54773 6.20605 3.71573 6.20605 3.92273V6.13373L7.90856 7.14873C8.08606 7.25523 8.14456 7.48523 8.03855 7.66323C7.96806 7.78073 7.84355 7.84623 7.71605 7.84623Z" fill="#E25C5C"/>
</svg>
