<svg width="18" height="18" viewBox="0 0 18 18" fill="none" xmlns="http://www.w3.org/2000/svg">
<path d="M16.5 3.75C16.5 2.50736 15.4926 1.5 14.25 1.5H3.75C2.50736 1.5 1.5 2.50736 1.5 3.75V14.25C1.5 15.4926 2.50736 16.5 3.75 16.5H14.25C15.4926 16.5 16.5 15.4926 16.5 14.25V3.75Z" fill="#95C3DD"/>
<path d="M4.0584 16.5H13.9416C15.6527 16.5 16.5 15.6535 16.5 13.9769V4.03933C16.5 2.36272 15.6527 1.51628 13.9416 1.51628H4.0584C2.35551 1.51628 1.5 2.35458 1.5 4.03933V13.9769C1.5 15.6616 2.35551 16.5 4.0584 16.5Z" fill="#95C3DD"/>
<path d="M9.0041 10.5098C8.5804 10.5098 8.35226 10.2737 8.34411 9.84235L8.23005 5.40667C8.2219 4.97531 8.53966 4.66602 8.9959 4.66602C9.44407 4.66602 9.77808 4.98344 9.76995 5.41481L9.65592 9.84235C9.64779 10.2818 9.41146 10.5098 9.0041 10.5098ZM9.0041 13.2362C8.51519 13.2362 8.09153 12.8456 8.09153 12.3654C8.09153 11.8852 8.50705 11.4864 9.0041 11.4864C9.50109 11.4864 9.91665 11.8771 9.91665 12.3654C9.91665 12.8538 9.49295 13.2362 9.0041 13.2362Z" fill="white"/>
</svg>
