<svg width="100" height="100" viewBox="0 0 100 100" fill="none" xmlns="http://www.w3.org/2000/svg">
<rect width="100" height="100" rx="50" fill="white"/>
<path d="M32.5 24.394C32.5 23.518 33.1926 22.8079 34.047 22.8079H65.9529C66.8073 22.8079 67.5 23.518 67.5 24.394V25.6519C67.5 26.5278 66.8073 27.238 65.9529 27.238H34.047C33.1926 27.238 32.5 26.5278 32.5 25.6519V24.394Z" fill="#6EBC30"/>
<path d="M32.5 35.4693C32.5 34.5933 33.1927 33.8832 34.0471 33.8832H65.953C66.8074 33.8832 67.5 34.5933 67.5 35.4693V36.7272C67.5 37.6032 66.8074 38.3133 65.953 38.3133H34.0471C33.1927 38.3133 32.5 37.6032 32.5 36.7272V35.4693Z" fill="#E25C5C"/>
<path d="M32.5 46.5444C32.5 45.6685 33.1927 44.9583 34.0471 44.9583H65.953C66.8074 44.9583 67.5 45.6685 67.5 46.5444V47.8024C67.5 48.6783 66.8074 49.3884 65.953 49.3884H34.0471C33.1927 49.3884 32.5 48.6783 32.5 47.8024V46.5444Z" fill="#0EC0CB"/>
<path d="M51.9443 24.9121C51.9443 25.952 51.1221 26.7949 50.1079 26.7949C49.0937 26.7949 48.2715 25.952 48.2715 24.9121C48.2715 23.8723 49.0937 23.0293 50.1079 23.0293C51.1221 23.0293 51.9443 23.8723 51.9443 24.9121Z" fill="white"/>
<path d="M60.8024 35.9875C60.8024 37.0273 59.9802 37.8703 58.966 37.8703C57.9517 37.8703 57.1296 37.0273 57.1296 35.9875C57.1296 34.9477 57.9517 34.1047 58.966 34.1047C59.9802 34.1047 60.8024 34.9477 60.8024 35.9875Z" fill="white"/>
<path d="M42.8703 47.0628C42.8703 48.1026 42.0481 48.9456 41.0339 48.9456C40.0197 48.9456 39.1975 48.1026 39.1975 47.0628C39.1975 46.0229 40.0197 45.18 41.0339 45.18C42.0481 45.18 42.8703 46.0229 42.8703 47.0628Z" fill="white"/>
<path d="M32.5 24.394C32.5 23.518 33.1926 22.8079 34.047 22.8079H65.9529C66.8073 22.8079 67.5 23.518 67.5 24.394V25.6519C67.5 26.5278 66.8073 27.238 65.9529 27.238H34.047C33.1926 27.238 32.5 26.5278 32.5 25.6519V24.394Z" fill="#6EBC30"/>
<path d="M32.5 35.4693C32.5 34.5933 33.1927 33.8832 34.0471 33.8832H65.953C66.8074 33.8832 67.5 34.5933 67.5 35.4693V36.7272C67.5 37.6032 66.8074 38.3133 65.953 38.3133H34.0471C33.1927 38.3133 32.5 37.6032 32.5 36.7272V35.4693Z" fill="#E25C5C"/>
<path d="M32.5 46.5444C32.5 45.6685 33.1927 44.9583 34.0471 44.9583H65.953C66.8074 44.9583 67.5 45.6685 67.5 46.5444V47.8024C67.5 48.6783 66.8074 49.3884 65.953 49.3884H34.0471C33.1927 49.3884 32.5 48.6783 32.5 47.8024V46.5444Z" fill="#0EC0CB"/>
<path d="M44.8603 47.1207C44.8603 49.2632 43.1662 51 41.0765 51C38.9868 51 37.2928 49.2632 37.2928 47.1207C37.2928 44.9782 38.9868 43.2414 41.0765 43.2414C43.1662 43.2414 44.8603 44.9782 44.8603 47.1207Z" fill="#2F312A"/>
<path d="M62.7701 36C62.7701 38.1425 61.076 39.8793 58.9863 39.8793C56.8966 39.8793 55.2026 38.1425 55.2026 36C55.2026 33.8575 56.8966 32.1207 58.9863 32.1207C61.076 32.1207 62.7701 33.8575 62.7701 36Z" fill="#2F312A"/>
<path d="M53.9413 24.8793C53.9413 27.0218 52.2473 28.7586 50.1576 28.7586C48.0678 28.7586 46.3738 27.0218 46.3738 24.8793C46.3738 22.7368 48.0678 21 50.1576 21C52.2473 21 53.9413 22.7368 53.9413 24.8793Z" fill="#2F312A"/>
<path d="M51.9443 24.9121C51.9443 25.952 51.1221 26.7949 50.1079 26.7949C49.0937 26.7949 48.2715 25.952 48.2715 24.9121C48.2715 23.8723 49.0937 23.0293 50.1079 23.0293C51.1221 23.0293 51.9443 23.8723 51.9443 24.9121Z" fill="white"/>
<path d="M60.8024 35.9875C60.8024 37.0273 59.9802 37.8703 58.966 37.8703C57.9517 37.8703 57.1296 37.0273 57.1296 35.9875C57.1296 34.9477 57.9517 34.1047 58.966 34.1047C59.9802 34.1047 60.8024 34.9477 60.8024 35.9875Z" fill="white"/>
<path d="M42.8703 47.0628C42.8703 48.1026 42.0481 48.9456 41.0339 48.9456C40.0197 48.9456 39.1975 48.1026 39.1975 47.0628C39.1975 46.0229 40.0197 45.18 41.0339 45.18C42.0481 45.18 42.8703 46.0229 42.8703 47.0628Z" fill="white"/>
<path d="M27.8641 65.82H32.8441V70.476H27.8641V65.82ZM31.8721 66.624H28.8361V69.672H31.8721V66.624ZM34.8361 65.088H35.8321V71.268H34.8361V65.088ZM35.5561 67.692H37.4401V68.52H35.5561V67.692ZM31.9441 72.288H32.7961V72.576C32.7961 74.28 31.0081 75.54 28.8721 75.9L28.4881 75.132C30.3601 74.844 31.9441 73.788 31.9441 72.576V72.288ZM32.1361 72.288H32.9881V72.576C32.9881 73.764 34.5961 74.844 36.4321 75.144L36.0601 75.912C33.9361 75.552 32.1361 74.244 32.1361 72.576V72.288ZM28.9081 71.916H36.0241V72.708H28.9081V71.916ZM42.7431 71.064H43.7271V72.78H42.7431V71.064ZM38.3271 70.44H48.1311V71.256H38.3271V70.44ZM42.7431 65.016H43.7271V66.54H42.7431V65.016ZM42.6951 66.624H43.5711V66.792C43.5711 68.556 41.5791 69.576 39.2031 69.816L38.9031 69.048C41.0031 68.88 42.6951 68.028 42.6951 66.792V66.624ZM42.8991 66.624H43.7751V66.792C43.7751 68.028 45.4551 68.88 47.5671 69.048L47.2671 69.816C44.8911 69.576 42.8991 68.556 42.8991 66.792V66.624ZM39.3351 66.108H47.1351V66.9H39.3351V66.108ZM39.5271 72.432H46.9311V75.792H39.5271V72.432ZM45.9591 73.224H40.5111V74.988H45.9591V73.224ZM59.7418 65.088H60.7498V73.164H59.7418V65.088ZM56.4418 65.928H57.4978C57.4978 68.736 55.4938 70.86 52.4218 71.868L51.9898 71.064C54.6658 70.188 56.4418 68.484 56.4418 66.348V65.928ZM52.5298 65.928H57.0538V66.756H52.5298V65.928ZM56.9938 67.32H59.8978V68.136H56.9938V67.32ZM56.8858 69.756H59.8618V70.572H56.8858V69.756ZM53.8858 74.88H61.0138V75.696H53.8858V74.88ZM53.8858 72.384H54.8818V75.384H53.8858V72.384ZM65.5009 66.192H66.3169V67.068C66.3169 69.048 65.0929 70.74 63.2809 71.412L62.7649 70.62C64.3849 70.044 65.5009 68.604 65.5009 67.068V66.192ZM65.6929 66.192H66.4969V67.068C66.4969 68.46 67.5529 69.816 69.1249 70.368L68.6209 71.16C66.8569 70.512 65.6929 68.88 65.6929 67.068V66.192ZM68.5369 67.908H70.9489V68.736H68.5369V67.908ZM63.0769 65.832H68.8729V66.636H63.0769V65.832ZM64.4209 72.168H71.6569V75.936H70.6609V72.984H64.4209V72.168ZM70.6609 65.088H71.6569V71.58H70.6609V65.088Z" fill="#152123"/>
</svg>
