<svg width="58" height="50" viewBox="0 0 58 50" fill="none" xmlns="http://www.w3.org/2000/svg">
<path d="M0 5.6566C0 4.19664 1.14778 3.01311 2.56365 3.01311H55.4363C56.8522 3.01311 57.9999 4.19664 57.9999 5.6566V7.75311C57.9999 9.21307 56.8522 10.3966 55.4363 10.3966H2.56365C1.14778 10.3966 0 9.21307 0 7.75312V5.6566Z" fill="#FF7100"/>
<path d="M5.01782e-05 24.1155C5.01782e-05 22.6556 1.14783 21.472 2.5637 21.472H55.4363C56.8522 21.472 58 22.6556 58 24.1155V26.212C58 27.672 56.8522 28.8555 55.4364 28.8555H2.5637C1.14783 28.8555 5.01782e-05 27.672 5.01782e-05 26.212V24.1155Z" fill="#E25C5C"/>
<path d="M5.01782e-05 42.5741C5.01782e-05 41.1141 1.14783 39.9306 2.5637 39.9306H55.4363C56.8522 39.9306 58 41.1141 58 42.5741V44.6706C58 46.1305 56.8522 47.3141 55.4364 47.3141H2.5637C1.14783 47.3141 5.01782e-05 46.1306 5.01782e-05 44.6706V42.5741Z" fill="#FF9900"/>
<path d="M32.222 6.52022C32.222 8.25328 30.8595 9.6582 29.1788 9.6582C27.4981 9.6582 26.1356 8.25328 26.1356 6.52022C26.1356 4.78715 27.4981 3.38223 29.1788 3.38223C30.8595 3.38223 32.222 4.78715 32.222 6.52022Z" fill="white"/>
<path d="M46.9011 24.9792C46.9011 26.7122 45.5386 28.1171 43.8579 28.1171C42.1772 28.1171 40.8147 26.7122 40.8147 24.9792C40.8147 23.2461 42.1772 21.8412 43.8579 21.8412C45.5386 21.8412 46.9011 23.2461 46.9011 24.9792Z" fill="white"/>
<path d="M17.1851 43.438C17.1851 45.171 15.8226 46.5759 14.1419 46.5759C12.4611 46.5759 11.0987 45.171 11.0987 43.438C11.0987 41.7049 12.4611 40.3 14.1419 40.3C15.8226 40.3 17.1851 41.7049 17.1851 43.438Z" fill="white"/>
<path d="M0 5.6566C0 4.19664 1.14778 3.01311 2.56365 3.01311H55.4363C56.8522 3.01311 57.9999 4.19664 57.9999 5.6566V7.75311C57.9999 9.21307 56.8522 10.3966 55.4363 10.3966H2.56365C1.14778 10.3966 0 9.21307 0 7.75312V5.6566Z" fill="#FF7100"/>
<path d="M5.01782e-05 24.1155C5.01782e-05 22.6556 1.14783 21.472 2.5637 21.472H55.4363C56.8522 21.472 58 22.6556 58 24.1155V26.212C58 27.672 56.8522 28.8555 55.4364 28.8555H2.5637C1.14783 28.8555 5.01782e-05 27.672 5.01782e-05 26.212V24.1155Z" fill="#E25C5C"/>
<path d="M5.01782e-05 42.5741C5.01782e-05 41.1141 1.14783 39.9306 2.5637 39.9306H55.4363C56.8522 39.9306 58 41.1141 58 42.5741V44.6706C58 46.1305 56.8522 47.3141 55.4364 47.3141H2.5637C1.14783 47.3141 5.01782e-05 46.1306 5.01782e-05 44.6706V42.5741Z" fill="#FF9900"/>
<path d="M20.4828 43.5345C20.4828 47.1053 17.6755 50 14.2125 50C10.7496 50 7.94229 47.1053 7.94229 43.5345C7.94229 39.9637 10.7496 37.069 14.2125 37.069C17.6755 37.069 20.4828 39.9637 20.4828 43.5345Z" fill="#132D5C"/>
<path d="M50.1619 25C50.1619 28.5708 47.3546 31.4655 43.8916 31.4655C40.4287 31.4655 37.6214 28.5708 37.6214 25C37.6214 21.4292 40.4287 18.5345 43.8916 18.5345C47.3546 18.5345 50.1619 21.4292 50.1619 25Z" fill="#132D5C"/>
<path d="M35.5313 6.46552C35.5313 10.0363 32.724 12.931 29.2611 12.931C25.7981 12.931 22.9909 10.0363 22.9909 6.46552C22.9909 2.89471 25.7981 0 29.2611 0C32.724 0 35.5313 2.89471 35.5313 6.46552Z" fill="#132D5C"/>
<path d="M32.222 6.52022C32.222 8.25328 30.8595 9.6582 29.1788 9.6582C27.4981 9.6582 26.1356 8.25328 26.1356 6.52022C26.1356 4.78715 27.4981 3.38223 29.1788 3.38223C30.8595 3.38223 32.222 4.78715 32.222 6.52022Z" fill="white"/>
<path d="M46.9011 24.9792C46.9011 26.7122 45.5386 28.1171 43.8579 28.1171C42.1772 28.1171 40.8147 26.7122 40.8147 24.9792C40.8147 23.2461 42.1772 21.8412 43.8579 21.8412C45.5386 21.8412 46.9011 23.2461 46.9011 24.9792Z" fill="white"/>
<path d="M17.1851 43.438C17.1851 45.171 15.8226 46.5759 14.1419 46.5759C12.4611 46.5759 11.0987 45.171 11.0987 43.438C11.0987 41.7049 12.4611 40.3 14.1419 40.3C15.8226 40.3 17.1851 41.7049 17.1851 43.438Z" fill="white"/>
</svg>
