<svg width="120" height="120" viewBox="0 0 120 120" fill="none" xmlns="http://www.w3.org/2000/svg">
<rect width="120" height="120" rx="60" fill="#EDEDF2"/>
<path d="M30 40.6566C30 39.1966 31.1478 38.0131 32.5636 38.0131H85.4363C86.8522 38.0131 87.9999 39.1966 87.9999 40.6566V42.7531C87.9999 44.2131 86.8522 45.3966 85.4363 45.3966H32.5636C31.1478 45.3966 30 44.2131 30 42.7531V40.6566Z" fill="#6EBC30"/>
<path d="M30.0001 59.1155C30.0001 57.6556 31.1478 56.472 32.5637 56.472H85.4363C86.8522 56.472 88 57.6556 88 59.1155V61.212C88 62.672 86.8522 63.8555 85.4364 63.8555H32.5637C31.1478 63.8555 30.0001 62.672 30.0001 61.212V59.1155Z" fill="#E25C5C"/>
<path d="M30.0001 77.5741C30.0001 76.1141 31.1478 74.9306 32.5637 74.9306H85.4363C86.8522 74.9306 88 76.1141 88 77.5741V79.6706C88 81.1305 86.8522 82.3141 85.4364 82.3141H32.5637C31.1478 82.3141 30.0001 81.1306 30.0001 79.6706V77.5741Z" fill="#0EC0CB"/>
<path d="M62.222 41.5202C62.222 43.2533 60.8595 44.6582 59.1788 44.6582C57.4981 44.6582 56.1356 43.2533 56.1356 41.5202C56.1356 39.7872 57.4981 38.3822 59.1788 38.3822C60.8595 38.3822 62.222 39.7872 62.222 41.5202Z" fill="white"/>
<path d="M76.9011 59.9792C76.9011 61.7122 75.5386 63.1171 73.8579 63.1171C72.1772 63.1171 70.8147 61.7122 70.8147 59.9792C70.8147 58.2461 72.1772 56.8412 73.8579 56.8412C75.5386 56.8412 76.9011 58.2461 76.9011 59.9792Z" fill="white"/>
<path d="M47.1851 78.438C47.1851 80.171 45.8226 81.5759 44.1419 81.5759C42.4611 81.5759 41.0987 80.171 41.0987 78.438C41.0987 76.7049 42.4611 75.3 44.1419 75.3C45.8226 75.3 47.1851 76.7049 47.1851 78.438Z" fill="white"/>
<path d="M30 40.6566C30 39.1966 31.1478 38.0131 32.5636 38.0131H85.4363C86.8522 38.0131 87.9999 39.1966 87.9999 40.6566V42.7531C87.9999 44.2131 86.8522 45.3966 85.4363 45.3966H32.5636C31.1478 45.3966 30 44.2131 30 42.7531V40.6566Z" fill="#6EBC30"/>
<path d="M30.0001 59.1155C30.0001 57.6556 31.1478 56.472 32.5637 56.472H85.4363C86.8522 56.472 88 57.6556 88 59.1155V61.212C88 62.672 86.8522 63.8555 85.4364 63.8555H32.5637C31.1478 63.8555 30.0001 62.672 30.0001 61.212V59.1155Z" fill="#E25C5C"/>
<path d="M30.0001 77.5741C30.0001 76.1141 31.1478 74.9306 32.5637 74.9306H85.4363C86.8522 74.9306 88 76.1141 88 77.5741V79.6706C88 81.1305 86.8522 82.3141 85.4364 82.3141H32.5637C31.1478 82.3141 30.0001 81.1306 30.0001 79.6706V77.5741Z" fill="#0EC0CB"/>
<path d="M50.4828 78.5345C50.4828 82.1053 47.6755 85 44.2125 85C40.7496 85 37.9423 82.1053 37.9423 78.5345C37.9423 74.9637 40.7496 72.069 44.2125 72.069C47.6755 72.069 50.4828 74.9637 50.4828 78.5345Z" fill="#2F312A"/>
<path d="M80.1619 60C80.1619 63.5708 77.3546 66.4655 73.8916 66.4655C70.4287 66.4655 67.6214 63.5708 67.6214 60C67.6214 56.4292 70.4287 53.5345 73.8916 53.5345C77.3546 53.5345 80.1619 56.4292 80.1619 60Z" fill="#2F312A"/>
<path d="M65.5313 41.4655C65.5313 45.0363 62.724 47.931 59.2611 47.931C55.7981 47.931 52.9909 45.0363 52.9909 41.4655C52.9909 37.8947 55.7981 35 59.2611 35C62.724 35 65.5313 37.8947 65.5313 41.4655Z" fill="#2F312A"/>
<path d="M62.222 41.5202C62.222 43.2533 60.8595 44.6582 59.1788 44.6582C57.4981 44.6582 56.1356 43.2533 56.1356 41.5202C56.1356 39.7872 57.4981 38.3822 59.1788 38.3822C60.8595 38.3822 62.222 39.7872 62.222 41.5202Z" fill="white"/>
<path d="M76.9011 59.9792C76.9011 61.7122 75.5386 63.1171 73.8579 63.1171C72.1772 63.1171 70.8147 61.7122 70.8147 59.9792C70.8147 58.2461 72.1772 56.8412 73.8579 56.8412C75.5386 56.8412 76.9011 58.2461 76.9011 59.9792Z" fill="white"/>
<path d="M47.1851 78.438C47.1851 80.171 45.8226 81.5759 44.1419 81.5759C42.4611 81.5759 41.0987 80.171 41.0987 78.438C41.0987 76.7049 42.4611 75.3 44.1419 75.3C45.8226 75.3 47.1851 76.7049 47.1851 78.438Z" fill="white"/>
</svg>
