<svg width="24" height="14" viewBox="0 0 24 14" fill="none" xmlns="http://www.w3.org/2000/svg">
<path fill-rule="evenodd" clip-rule="evenodd" d="M22.6424 12.7448C23.0883 12.3733 23.1224 11.7331 22.7154 11.3222L12.7912 1.32304C12.7909 1.32281 12.7914 1.32328 12.7912 1.32304C12.5856 1.11519 12.297 1 12.0001 1C11.7031 1 11.4152 1.11448 11.2096 1.32235C11.2098 1.32211 11.2094 1.32258 11.2096 1.32235L1.2851 11.3218C1.0971 11.5118 1 11.7551 1 11.9998C1 12.2755 1.12245 12.5491 1.35811 12.7451C1.79487 13.1086 2.46568 13.0807 2.86518 12.6783L12.0001 3.4745L21.1348 12.6782C21.5344 13.0807 22.2056 13.1086 22.6424 12.7448Z" fill="black"/>
<path d="M12.7912 1.32304C12.7909 1.32281 12.7914 1.32328 12.7912 1.32304ZM12.7912 1.32304C12.5856 1.11519 12.297 1 12.0001 1C11.7031 1 11.4152 1.11448 11.2096 1.32235M12.7912 1.32304L22.7154 11.3222C23.1224 11.7331 23.0883 12.3733 22.6424 12.7448C22.2056 13.1086 21.5344 13.0807 21.1348 12.6782L12.0001 3.4745L2.86518 12.6783C2.46567 13.0807 1.79487 13.1086 1.35811 12.7451C1.12245 12.5491 1 12.2755 1 11.9998C1 11.7551 1.0971 11.5118 1.2851 11.3218L11.2096 1.32235M11.2096 1.32235C11.2094 1.32258 11.2098 1.32211 11.2096 1.32235Z" stroke="black" stroke-width="0.5"/>
</svg>
