<svg width="26" height="20" viewBox="0 0 26 20" fill="none" xmlns="http://www.w3.org/2000/svg">
<path d="M7.58385 10.0001C9.65486 10.0001 11.3337 8.16862 11.3337 5.90931C11.3337 3.65001 9.65486 1.81848 7.58385 1.81848C5.51285 1.81848 3.83396 3.65001 3.83396 5.90931C3.83396 8.16862 5.51285 10.0001 7.58385 10.0001Z" fill="white"/>
<path d="M11.8538 12.2726C10.3872 11.4601 8.76851 11.1362 7.58313 11.1362C5.26132 11.1362 0.5 12.6896 0.5 15.7952V18.1815H8.31228V17.2685C8.31228 16.189 8.72893 15.1066 9.45808 14.2043C10.0398 13.4839 10.8544 12.8152 11.8538 12.2726Z" fill="white"/>
<path d="M17.3752 11.8183C14.6633 11.8183 9.25047 13.6456 9.25047 17.2728V20H25.5V17.2728C25.5 13.6456 20.0871 11.8183 17.3752 11.8183Z" fill="white"/>
<path d="M17.3745 9.99982C19.9058 9.99982 21.9577 7.76128 21.9577 4.99991C21.9577 2.23854 19.9058 0 17.3745 0C14.8433 0 12.7913 2.23854 12.7913 4.99991C12.7913 7.76128 14.8433 9.99982 17.3745 9.99982Z" fill="white"/>
</svg>
