<svg width="30" height="30" viewBox="0 0 30 30" fill="none" xmlns="http://www.w3.org/2000/svg">
<g opacity="0.4">
<path d="M24.7222 2.5C25.4589 2.5 26.1655 2.79266 26.6864 3.31359C27.2073 3.83453 27.5 4.54107 27.5 5.27778V24.7222C27.5 26.2639 26.25 27.5 24.7222 27.5H5.27778C4.54107 27.5 3.83453 27.2073 3.31359 26.6864C2.79266 26.1655 2.5 25.4589 2.5 24.7222V5.27778C2.5 4.54107 2.79266 3.83453 3.31359 3.31359C3.83453 2.79266 4.54107 2.5 5.27778 2.5H24.7222ZM21.5278 11.3194C21.8333 11.0278 21.8333 10.5417 21.5278 10.25L19.75 8.47222C19.4583 8.16667 18.9722 8.16667 18.6806 8.47222L17.2917 9.86111L20.1389 12.7083L21.5278 11.3194ZM8.05556 19.0833V21.9444H10.9167L19.3333 13.5278L16.4722 10.6667L8.05556 19.0833Z" fill="white"/>
</g>
</svg>
